<?xml version="1.0" encoding="UTF-8" standalone="no" ?>
<!DOCTYPE svg PUBLIC "-//W3C//DTD SVG 1.1//EN" "http://www.w3.org/Graphics/SVG/1.1/DTD/svg11.dtd">
<svg xmlns="http://www.w3.org/2000/svg" xmlns:xlink="http://www.w3.org/1999/xlink" version="1.1" width="200" height="200" viewBox="0 0 200 200" xml:space="preserve">
<desc>Created with Fabric.js 3.6.3</desc>
<defs>
</defs>
<g transform="matrix(1 0 0 1 100.5 17)"  >
<path style="stroke: rgb(0,0,0); stroke-width: 10; stroke-dasharray: none; stroke-linecap: round; stroke-dashoffset: 0; stroke-linejoin: round; stroke-miterlimit: 10; fill: none; fill-rule: nonzero; opacity: 1;"  transform=" translate(-94.5, -29)" d="M 95 37.01 Q 95 37 94.5 37 Q 94 37 94 36.5 Q 94 36 94 35.5 Q 94 35 93.5 34.5 Q 93 34 93 33.5 Q 93 33 93 32.5 Q 93 32 93 31 Q 93 30 93 29.5 Q 93 29 93.5 28.5 Q 94 28 94 27 Q 94 26 94 25.5 Q 94 25 94 24.5 Q 94 24 94.5 24 Q 95 24 95 23.5 Q 95 23 95.5 22.5 Q 96 22 96 21.5 L 96 20.99" stroke-linecap="round" />
</g>
<g transform="matrix(1 0 0 1 100.5 100.5)"  >
<path style="stroke: rgb(0,0,0); stroke-width: 10; stroke-dasharray: none; stroke-linecap: round; stroke-dashoffset: 0; stroke-linejoin: round; stroke-miterlimit: 10; fill: none; fill-rule: nonzero; opacity: 1;"  transform=" translate(-99, -109)" d="M 86.01 58.99 Q 86 59 85.5 59.5 Q 85 60 84 60.5 Q 83 61 82.5 61 Q 82 61 81 61 Q 80 61 79.5 61.5 Q 79 62 78 62 Q 77 62 76 62 Q 75 62 75 62.5 Q 75 63 74 63 Q 73 63 71 63.5 Q 69 64 68.5 64.5 Q 68 65 67.5 65 Q 67 65 66.5 65.5 Q 66 66 65.5 66 Q 65 66 64 66.5 Q 63 67 62.5 67.5 Q 62 68 61.5 68 Q 61 68 60 68.5 Q 59 69 59 69.5 Q 59 70 58 70.5 Q 57 71 56.5 71.5 Q 56 72 55.5 72.5 Q 55 73 54.5 73.5 Q 54 74 53.5 74.5 Q 53 75 53 75.5 Q 53 76 52.5 76 Q 52 76 51.5 77 Q 51 78 51 78.5 Q 51 79 51 79.5 Q 51 80 50.5 80.5 Q 50 81 50 81.5 Q 50 82 49.5 82.5 Q 49 83 49 83.5 Q 49 84 48.5 85 Q 48 86 47.5 87 Q 47 88 47 88.5 Q 47 89 47 90 Q 47 91 46.5 91.5 Q 46 92 46 92.5 Q 46 93 46 93.5 Q 46 94 46 94.5 Q 46 95 46 95.5 Q 46 96 46 96.5 Q 46 97 46 97.5 Q 46 98 46 99 Q 46 100 46 100.5 Q 46 101 46 101.5 Q 46 102 46 102.5 Q 46 103 45.5 103.5 Q 45 104 45 105.5 Q 45 107 45 107.5 Q 45 108 45 109 Q 45 110 45 110.5 Q 45 111 45 111.5 Q 45 112 45 113 Q 45 114 45.5 114.5 Q 46 115 46 115.5 Q 46 116 46 116.5 Q 46 117 46 117.5 Q 46 118 46 119 Q 46 120 46 120.5 Q 46 121 46.5 122 Q 47 123 47 123.5 Q 47 124 47 124.5 Q 47 125 47 125.5 Q 47 126 47.5 126.5 Q 48 127 48 128 Q 48 129 48.5 130.5 Q 49 132 49.5 132 Q 50 132 50 132.5 Q 50 133 50 133.5 Q 50 134 50.5 135 Q 51 136 51.5 137 Q 52 138 52 138.5 Q 52 139 52.5 139 Q 53 139 53 139.5 Q 53 140 53 140.5 Q 53 141 53.5 141.5 Q 54 142 54.5 143 Q 55 144 55.5 144.5 Q 56 145 56 145.5 Q 56 146 56.5 146 Q 57 146 57 146.5 Q 57 147 57 147.5 Q 57 148 57.5 148.5 Q 58 149 58.5 149 Q 59 149 59.5 149.5 Q 60 150 60 150.5 Q 60 151 60.5 151 Q 61 151 61.5 151.5 Q 62 152 62 152.5 Q 62 153 62.5 153.5 Q 63 154 63.5 154 Q 64 154 64.5 154.5 Q 65 155 65.5 155 Q 66 155 66.5 155.5 Q 67 156 67.5 156.5 Q 68 157 68.5 157 Q 69 157 69.5 157.5 Q 70 158 70.5 158 Q 71 158 71.5 158.5 Q 72 159 72.5 159 Q 73 159 73.5 159 Q 74 159 74.5 159.5 Q 75 160 75.5 160 Q 76 160 76.5 160 Q 77 160 78 160.5 Q 79 161 79.5 161 Q 80 161 80.5 161 Q 81 161 82 161.5 Q 83 162 84 162.5 Q 85 163 85.5 163 Q 86 163 86.5 163 Q 87 163 87.5 163 Q 88 163 88.5 163 Q 89 163 89.5 163 Q 90 163 90.5 163 Q 91 163 91 163.5 Q 91 164 92 164 Q 93 164 94.5 164 Q 96 164 97 164 Q 98 164 98.5 164 Q 99 164 100 164 Q 101 164 101.5 164 Q 102 164 102.5 164 Q 103 164 104 164 Q 105 164 105.5 164 Q 106 164 106.5 164 Q 107 164 108 164 Q 109 164 110 164 Q 111 164 111.5 164 Q 112 164 112 163.5 Q 112 163 113 163 Q 114 163 114.5 162.5 Q 115 162 115.5 162 Q 116 162 116.5 161.5 Q 117 161 117.5 161 Q 118 161 118.5 160.5 Q 119 160 119.5 160 Q 120 160 120.5 160 Q 121 160 122 159.5 Q 123 159 123.5 158.5 Q 124 158 124.5 158 Q 125 158 125.5 157.5 Q 126 157 126.5 157 Q 127 157 127.5 156.5 Q 128 156 128.5 156 Q 129 156 129 155.5 Q 129 155 129.5 155 Q 130 155 130.5 154.5 Q 131 154 131.5 153.5 Q 132 153 132.5 153 Q 133 153 133.5 152.5 Q 134 152 134.5 151.5 Q 135 151 135.5 150.5 Q 136 150 136.5 149.5 Q 137 149 137.5 149 Q 138 149 138.5 148.5 Q 139 148 139.5 147.5 Q 140 147 140.5 146.5 Q 141 146 141 145.5 Q 141 145 141.5 145 Q 142 145 142 144.5 Q 142 144 142.5 144 Q 143 144 143 143.5 Q 143 143 143.5 142.5 Q 144 142 144.5 141 Q 145 140 145.5 139.5 Q 146 139 146 138.5 Q 146 138 146.5 138 Q 147 138 147 137.5 Q 147 137 147.5 136.5 Q 148 136 148 135.5 Q 148 135 148 134.5 Q 148 134 148.5 133 Q 149 132 149.5 131.5 Q 150 131 150 130.5 Q 150 130 150.5 129 Q 151 128 151 127.5 Q 151 127 151 126.5 Q 151 126 151 125.5 Q 151 125 151.5 124.5 Q 152 124 152 122.5 Q 152 121 152.5 120.5 Q 153 120 153 119.5 Q 153 119 153 118.5 Q 153 118 153 117 Q 153 116 153 115 Q 153 114 153 113.5 Q 153 113 153 112.5 Q 153 112 153 111.5 Q 153 111 153 110 Q 153 109 153 108.5 Q 153 108 153 106.5 Q 153 105 153 104.5 Q 153 104 152.5 103 Q 152 102 152 101 Q 152 100 151.5 99 Q 151 98 151 97 Q 151 96 150.5 95 Q 150 94 149.5 93.5 Q 149 93 149 92 Q 149 91 148.5 90.5 Q 148 90 148 89.5 Q 148 89 147.5 88.5 Q 147 88 146.5 87 Q 146 86 145 83.5 Q 144 81 143 80.5 Q 142 80 141.5 79 Q 141 78 140.5 77.5 Q 140 77 139.5 76.5 Q 139 76 138.5 75.5 Q 138 75 138 74.5 Q 138 74 137.5 74 Q 137 74 137 73.5 Q 137 73 136.5 72.5 Q 136 72 135.5 71.5 Q 135 71 134.5 70.5 Q 134 70 133 69.5 Q 132 69 131.5 68.5 Q 131 68 130.5 67.5 Q 130 67 129.5 67 Q 129 67 128.5 66.5 Q 128 66 127.5 65.5 Q 127 65 126.5 65 Q 126 65 126 64.5 Q 126 64 125 63.5 Q 124 63 123 62.5 Q 122 62 121.5 62 Q 121 62 120.5 61.5 Q 120 61 119.5 60.5 Q 119 60 118 59.5 Q 117 59 116.5 59 Q 116 59 115.5 59 Q 115 59 114.5 58.5 Q 114 58 113.5 58 Q 113 58 112 57.5 Q 111 57 110.5 57 Q 110 57 109 56.5 Q 108 56 107.5 56 Q 107 56 106 55.5 Q 105 55 104.5 55 Q 104 55 103.5 55 Q 103 55 102.5 55 Q 102 55 102 54.5 Q 102 54 101.5 54 L 100.99 54" stroke-linecap="round" />
</g>
<g transform="matrix(1 0 0 1 35.99 41.5)"  >
<path style="stroke: rgb(0,0,0); stroke-width: 10; stroke-dasharray: none; stroke-linecap: round; stroke-dashoffset: 0; stroke-linejoin: round; stroke-miterlimit: 10; fill: none; fill-rule: nonzero; opacity: 1;"  transform=" translate(-35.99, -41.5)" d="M 42 47.01 Q 42 47 41.5 47 Q 41 47 41 46.5 Q 41 46 40.5 46 Q 40 46 40 45.5 Q 40 45 39.5 45 Q 39 45 38.5 44.5 Q 38 44 37 43.5 Q 36 43 36 42.5 Q 36 42 35.5 41.5 Q 35 41 34 40 Q 33 39 32 38 Q 31 37 31 36.5 Q 31 36 30.5 36 L 29.99 36" stroke-linecap="round" />
</g>
<g transform="matrix(1 0 0 1 159 44)"  >
<path style="stroke: rgb(0,0,0); stroke-width: 10; stroke-dasharray: none; stroke-linecap: round; stroke-dashoffset: 0; stroke-linejoin: round; stroke-miterlimit: 10; fill: none; fill-rule: nonzero; opacity: 1;"  transform=" translate(-159, -44)" d="M 152.99 48 Q 153 48 153 47.5 Q 153 47 153.5 47 Q 154 47 155 46.5 Q 156 46 156.5 45.5 Q 157 45 158 44.5 Q 159 44 159.5 43.5 Q 160 43 161 42.5 Q 162 42 162.5 41.5 Q 163 41 163.5 41 Q 164 41 164 40.5 Q 164 40 164.5 40 L 165.01 40" stroke-linecap="round" />
</g>
<g transform="matrix(0.94 0.33 -0.33 0.94 23 123)"  >
<path style="stroke: rgb(0,0,0); stroke-width: 10; stroke-dasharray: none; stroke-linecap: round; stroke-dashoffset: 0; stroke-linejoin: round; stroke-miterlimit: 10; fill: none; fill-rule: nonzero; opacity: 1;"  transform=" translate(-23, -127)" d="M 29.01 122 Q 29 122 29 122.5 Q 29 123 28.5 123 Q 28 123 27.5 123.5 Q 27 124 26.5 124.5 Q 26 125 25.5 125 Q 25 125 25 125.5 Q 25 126 24.5 126 Q 24 126 24 126.5 Q 24 127 23.5 127 Q 23 127 23 127.5 Q 23 128 22.5 128 Q 22 128 20.5 129 Q 19 130 19 130.5 Q 19 131 18.5 131.5 Q 18 132 17.5 132 L 16.99 132" stroke-linecap="round" />
</g>
<g transform="matrix(1 0 0 1 65 175)"  >
<path style="stroke: rgb(0,0,0); stroke-width: 10; stroke-dasharray: none; stroke-linecap: round; stroke-dashoffset: 0; stroke-linejoin: round; stroke-miterlimit: 10; fill: none; fill-rule: nonzero; opacity: 1;"  transform=" translate(-65, -175)" d="M 67 169.99 Q 67 170 67 170.5 Q 67 171 67 171.5 Q 67 172 67 172.5 Q 67 173 67 173.5 Q 67 174 66.5 174.5 Q 66 175 66 175.5 Q 66 176 65.5 176.5 Q 65 177 64.5 177.5 Q 64 178 63.5 179 L 62.99 180.01" stroke-linecap="round" />
</g>
<g transform="matrix(1 0 0 1 147 170)"  >
<path style="stroke: rgb(0,0,0); stroke-width: 10; stroke-dasharray: none; stroke-linecap: round; stroke-dashoffset: 0; stroke-linejoin: round; stroke-miterlimit: 10; fill: none; fill-rule: nonzero; opacity: 1;"  transform=" translate(-147, -170)" d="M 143 164.99 Q 143 165 143 165.5 Q 143 166 143 166.5 Q 143 167 143.5 167.5 Q 144 168 144.5 169 Q 145 170 146 171 Q 147 172 147.5 172.5 Q 148 173 148.5 173.5 Q 149 174 149.5 174.5 Q 150 175 150.5 175 L 151.01 175" stroke-linecap="round" />
</g>
<g transform="matrix(1 0 0 1 179.5 137)"  >
<path style="stroke: rgb(0,0,0); stroke-width: 10; stroke-dasharray: none; stroke-linecap: round; stroke-dashoffset: 0; stroke-linejoin: round; stroke-miterlimit: 10; fill: none; fill-rule: nonzero; opacity: 1;"  transform=" translate(-173.5, -133)" d="M 169 130.99 Q 169 131 169.5 131 Q 170 131 170 131.5 Q 170 132 170.5 132 Q 171 132 171.5 132 Q 172 132 172.5 132.5 Q 173 133 173.5 133 Q 174 133 174.5 133.5 Q 175 134 175.5 134 Q 176 134 176.5 134.5 Q 177 135 177.5 135 L 178.01 135" stroke-linecap="round" />
</g>
<g transform="matrix(1 0 0 1 91.5 93)"  >
<path style="stroke: rgb(0,0,0); stroke-width: 10; stroke-dasharray: none; stroke-linecap: round; stroke-dashoffset: 0; stroke-linejoin: round; stroke-miterlimit: 10; fill: none; fill-rule: nonzero; opacity: 1;"  transform=" translate(-91.5, -93)" d="M 89.99 82.99 Q 90 83 90 83.5 Q 90 84 90.5 84.5 Q 91 85 91 86 Q 91 87 91.5 88 Q 92 89 92 89.5 Q 92 90 92.5 91 Q 93 92 93 92.5 Q 93 93 93 94 Q 93 95 93 96 Q 93 97 93 97.5 Q 93 98 93 98.5 Q 93 99 93 99.5 Q 93 100 93 101 Q 93 102 93 102.5 L 93 103.01" stroke-linecap="round" />
</g>
<g transform="matrix(1 0 0 1 119.5 89)"  >
<path style="stroke: rgb(0,0,0); stroke-width: 10; stroke-dasharray: none; stroke-linecap: round; stroke-dashoffset: 0; stroke-linejoin: round; stroke-miterlimit: 10; fill: none; fill-rule: nonzero; opacity: 1;"  transform=" translate(-119.5, -89)" d="M 119.99 78.99 Q 120 79 120 79.5 Q 120 80 120.5 80.5 Q 121 81 121 81.5 Q 121 82 121 82.5 Q 121 83 121 83.5 Q 121 84 121 85 Q 121 86 120.5 86.5 Q 120 87 120 88 Q 120 89 120 90 Q 120 91 120 91.5 Q 120 92 120 92.5 Q 120 93 119.5 93 Q 119 93 119 93.5 Q 119 94 119 94.5 Q 119 95 119 95.5 Q 119 96 118.5 97 Q 118 98 118 98.5 L 118 99.01" stroke-linecap="round" />
</g>
<g transform="matrix(0.98 -0.2 0.2 0.98 102 129)"  >
<path style="stroke: rgb(0,0,0); stroke-width: 10; stroke-dasharray: none; stroke-linecap: round; stroke-dashoffset: 0; stroke-linejoin: round; stroke-miterlimit: 10; fill: none; fill-rule: nonzero; opacity: 1;"  transform=" translate(-92, -128)" d="M 74.99 122.99 Q 75 123 76 123.5 Q 77 124 77.5 124.5 Q 78 125 79 126 Q 80 127 80.5 127 Q 81 127 81 127.5 Q 81 128 81.5 128 Q 82 128 82.5 128 Q 83 128 83.5 128.5 Q 84 129 84.5 129 Q 85 129 85 129.5 Q 85 130 85.5 130 Q 86 130 86.5 130 Q 87 130 87 130.5 Q 87 131 87.5 131 Q 88 131 88.5 131 Q 89 131 90 131.5 Q 91 132 91.5 132 Q 92 132 92.5 132 Q 93 132 93.5 132 Q 94 132 95 132 Q 96 132 96.5 132.5 Q 97 133 97.5 133 Q 98 133 98.5 133 Q 99 133 99.5 132.5 Q 100 132 100.5 132 Q 101 132 102 132 Q 103 132 103.5 132 Q 104 132 104.5 132 Q 105 132 105.5 132 Q 106 132 106 131.5 Q 106 131 106.5 131 Q 107 131 107.5 131 Q 108 131 108.5 131 Q 109 131 109 130.5 L 109 129.99" stroke-linecap="round" />
</g>
</svg>