<?xml version="1.0" standalone="no"?>
<!DOCTYPE svg PUBLIC "-//W3C//DTD SVG 20010904//EN"
 "http://www.w3.org/TR/2001/REC-SVG-20010904/DTD/svg10.dtd">
<svg version="1.0" xmlns="http://www.w3.org/2000/svg"
 width="1179.000000pt" height="443.000000pt" viewBox="0 0 1179.000000 443.000000"
 preserveAspectRatio="xMidYMid meet">

<g transform="translate(0.000000,443.000000) scale(0.100000,-0.100000)"
fill="#000000" stroke="none">
<path d="M1989 4384 c-186 -33 -432 -157 -664 -332 -79 -60 -374 -351 -479
-472 -233 -268 -397 -537 -554 -905 -229 -536 -298 -890 -247 -1255 54 -378
144 -638 290 -831 73 -98 261 -282 376 -368 169 -128 478 -191 934 -191 449 0
842 95 1089 263 85 58 208 178 282 277 70 92 176 296 195 373 43 175 -91 343
-270 340 -131 -2 -199 -56 -277 -218 -110 -230 -220 -332 -430 -398 -265 -84
-615 -107 -944 -63 -204 28 -224 36 -338 139 -165 149 -228 235 -276 382 -32
96 -71 284 -87 419 -31 264 69 627 306 1111 144 294 284 484 565 765 136 137
199 192 284 249 120 80 203 124 285 152 103 36 292 17 373 -36 55 -36 114
-130 139 -220 18 -67 20 -92 14 -191 l-7 -115 31 -64 c55 -111 142 -161 271
-153 81 4 146 39 197 106 50 66 58 107 58 297 0 184 -13 253 -75 406 -55 136
-195 311 -314 391 -187 128 -485 186 -727 142z"/>
<path d="M10535 4376 c-158 -31 -332 -109 -520 -233 -186 -123 -324 -246 -538
-478 -232 -252 -389 -479 -532 -770 -254 -516 -370 -915 -368 -1260 1 -286 84
-657 195 -881 57 -114 144 -228 269 -351 255 -250 358 -303 687 -354 200 -30
579 -38 762 -15 467 59 729 166 950 386 138 138 295 397 320 531 36 188 -140
361 -326 320 -61 -14 -133 -57 -161 -97 -12 -16 -39 -68 -61 -115 -79 -171
-192 -299 -317 -359 -78 -37 -247 -82 -407 -107 -213 -34 -589 -21 -799 28
-86 20 -88 21 -188 110 -227 201 -289 327 -352 705 -25 154 -22 304 11 459 30
143 53 215 132 414 147 369 300 638 491 866 130 154 398 411 502 481 203 136
299 176 425 175 99 -1 191 -22 238 -55 50 -35 110 -124 132 -193 20 -66 24
-116 21 -254 -2 -68 1 -96 16 -130 47 -104 125 -160 238 -167 63 -4 80 -1 126
20 71 33 124 88 151 157 19 50 22 75 22 221 0 149 -3 175 -28 265 -82 303
-289 543 -543 630 -162 56 -405 79 -548 51z"/>
<path d="M4058 4011 c-76 -25 -144 -70 -207 -136 -88 -93 -121 -191 -121 -359
1 -237 85 -399 239 -457 73 -27 202 -24 274 9 26 11 47 19 47 16 0 -2 -24 -40
-54 -84 -67 -98 -85 -163 -67 -245 33 -145 173 -243 314 -220 95 16 149 60
237 192 86 128 150 253 182 354 31 100 31 294 -1 412 -44 166 -153 312 -281
376 -34 17 -80 47 -102 67 -22 20 -66 48 -97 62 -50 24 -70 27 -181 29 -101 2
-136 -1 -182 -16z"/>
<path d="M7526 3989 c-71 -17 -166 -71 -222 -127 -76 -76 -121 -172 -133 -282
-16 -144 11 -314 65 -406 34 -59 112 -126 173 -148 70 -25 205 -19 275 12 l48
22 -17 -28 c-10 -15 -28 -40 -40 -57 -102 -138 -99 -283 9 -390 101 -102 237
-113 356 -30 41 28 146 174 214 297 110 198 137 403 81 618 -40 157 -153 301
-290 372 -39 20 -80 47 -90 59 -31 34 -87 66 -145 83 -59 18 -218 20 -284 5z"/>
<path d="M5329 2307 c-62 -23 -108 -57 -138 -100 -54 -80 -60 -133 -41 -337
16 -170 39 -546 41 -665 1 -78 -3 -127 -15 -170 -10 -33 -20 -110 -23 -171 -5
-95 -3 -122 15 -181 66 -217 320 -289 478 -135 72 70 104 181 104 367 l0 100
55 103 c101 192 219 333 320 382 26 13 74 25 111 28 61 4 67 3 94 -23 74 -70
134 -363 149 -715 9 -214 19 -249 94 -317 103 -95 270 -96 372 -2 24 23 54 62
67 87 22 44 23 58 21 222 -4 412 -96 830 -222 1013 -86 125 -210 225 -331 268
-56 20 -85 23 -200 23 -204 -1 -334 -38 -492 -140 -40 -26 -75 -46 -78 -46 -3
1 -10 52 -16 115 -7 67 -19 127 -29 147 -24 49 -83 108 -130 132 -50 26 -156
34 -206 15z"/>
</g>
</svg>
