<?xml version="1.0" encoding="UTF-8" standalone="no" ?>
<!DOCTYPE svg PUBLIC "-//W3C//DTD SVG 1.1//EN" "http://www.w3.org/Graphics/SVG/1.1/DTD/svg11.dtd">
<svg xmlns="http://www.w3.org/2000/svg" xmlns:xlink="http://www.w3.org/1999/xlink" version="1.1" width="200" height="200" viewBox="0 0 200 200" xml:space="preserve">
<desc>Created with Fabric.js 3.6.3</desc>
<defs>
</defs>
<g transform="matrix(1 0 0 1 103.5 74)"  >
<path style="stroke: rgb(0,0,0); stroke-width: 10; stroke-dasharray: none; stroke-linecap: round; stroke-dashoffset: 0; stroke-linejoin: round; stroke-miterlimit: 10; fill: none; fill-rule: nonzero; opacity: 1;"  transform=" translate(-103.5, -74)" d="M 34.99 105.01 Q 35 105 35 104.5 Q 35 104 35.5 103.5 Q 36 103 36 102.5 Q 36 102 36 101 Q 36 100 36 99.5 Q 36 99 36 98 Q 36 97 36 96 Q 36 95 36.5 94.5 Q 37 94 37 92.5 Q 37 91 37 90.5 Q 37 90 37 89 Q 37 88 37 87.5 Q 37 87 37 86 Q 37 85 37 84 Q 37 83 37 82.5 Q 37 82 37 81 Q 37 80 37 79 Q 37 78 36.5 77.5 Q 36 77 36 75.5 Q 36 74 36 73 Q 36 72 35.5 70.5 Q 35 69 35 68 Q 35 67 35 66.5 Q 35 66 35 65.5 Q 35 65 34.5 63.5 Q 34 62 34 61 Q 34 60 34 59.5 Q 34 59 34 58 Q 34 57 33.5 56 Q 33 55 33 54.5 Q 33 54 33 53.5 Q 33 53 33 52.5 Q 33 52 33 51.5 Q 33 51 33 50.5 Q 33 50 33 49.5 Q 33 49 33 48.5 Q 33 48 33 47.5 Q 33 47 33 46.5 Q 33 46 33 45.5 Q 33 45 33 44.5 Q 33 44 33.5 42.5 Q 34 41 34 40.5 Q 34 40 34 39.5 Q 34 39 34.5 38 Q 35 37 35 36.5 Q 35 36 35 35.5 Q 35 35 35.5 34.5 Q 36 34 36 33.5 Q 36 33 36.5 33 Q 37 33 37 32.5 Q 37 32 37 31.5 Q 37 31 37.5 31 Q 38 31 38 30.5 Q 38 30 38.5 30 Q 39 30 39.5 30 Q 40 30 41 30 Q 42 30 42.5 30 Q 43 30 44 30 Q 45 30 46 30 Q 47 30 48 30 Q 49 30 49.5 30 Q 50 30 51.5 30 Q 53 30 53.5 30 Q 54 30 55 30 Q 56 30 58 30.5 Q 60 31 61.5 31 Q 63 31 64 31.5 Q 65 32 65.5 32 Q 66 32 66.5 32 Q 67 32 68.5 32.5 Q 70 33 71 33 Q 72 33 72.5 33 Q 73 33 74 33 Q 75 33 76 33 Q 77 33 77.5 33.5 Q 78 34 79 34 Q 80 34 80.5 34 Q 81 34 82.5 34 Q 84 34 85.5 34.5 Q 87 35 88 35 Q 89 35 89.5 35 Q 90 35 91 35 Q 92 35 92.5 35 Q 93 35 94.5 35.5 Q 96 36 96.5 36 Q 97 36 97.5 36 Q 98 36 98.5 36 Q 99 36 100.5 36 Q 102 36 102.5 36 Q 103 36 103.5 36 Q 104 36 105 36.5 Q 106 37 107 37 Q 108 37 108.5 37 Q 109 37 110 37 Q 111 37 112.5 37 Q 114 37 114.5 37 Q 115 37 115.5 37 Q 116 37 118 37 Q 120 37 121.5 37 Q 123 37 124 36.5 Q 125 36 125.5 36 Q 126 36 127 36 Q 128 36 130 36 Q 132 36 132.5 36 Q 133 36 134 36 Q 135 36 136 36 Q 137 36 138 36 Q 139 36 141 36 Q 143 36 143.5 36 Q 144 36 147.5 36 Q 151 36 151.5 36 Q 152 36 153.5 36 Q 155 36 155.5 36 Q 156 36 157.5 36 Q 159 36 160.5 36.5 Q 162 37 162.5 37 Q 163 37 164 37 Q 165 37 166 37.5 Q 167 38 167.5 38 Q 168 38 168.5 38 Q 169 38 169.5 38 Q 170 38 170.5 38 Q 171 38 171.5 38 Q 172 38 172.5 38 Q 173 38 173.5 38 Q 174 38 174 38.5 Q 174 39 174 40 Q 174 41 174 42 Q 174 43 174 43.5 Q 174 44 174 45 Q 174 46 174 46.5 Q 174 47 174 47.5 Q 174 48 174 49 Q 174 50 173.5 51 Q 173 52 173 53 Q 173 54 173 55.5 Q 173 57 173 57.5 Q 173 58 173 59 Q 173 60 173 61.5 Q 173 63 172.5 64 Q 172 65 172 65.5 Q 172 66 172 68 Q 172 70 172 71 Q 172 72 171.5 73 Q 171 74 171 75 Q 171 76 171 77 Q 171 78 171 79.5 Q 171 81 170.5 81.5 Q 170 82 170 83 Q 170 84 170 85 Q 170 86 169.5 88 Q 169 90 169 90.5 Q 169 91 169 92 Q 169 93 169 93.5 Q 169 94 169 95 Q 169 96 168.5 96.5 Q 168 97 168 97.5 Q 168 98 168 99 Q 168 100 168 100.5 Q 168 101 168 101.5 Q 168 102 167.5 103 Q 167 104 167 104.5 Q 167 105 167 105.5 Q 167 106 167 106.5 Q 167 107 167 107.5 Q 167 108 167 109.5 Q 167 111 167 111.5 Q 167 112 167 112.5 Q 167 113 166.5 114 Q 166 115 166 116 Q 166 117 165 117 Q 164 117 162 117 Q 160 117 159 117 Q 158 117 157 117 Q 156 117 154.5 117 Q 153 117 152.5 117 Q 152 117 151 117.5 Q 150 118 149 118 Q 148 118 147.5 118 Q 147 118 146.5 118 Q 146 118 145.5 118 Q 145 118 143.5 118 Q 142 118 140.5 117.5 Q 139 117 138 117 Q 137 117 136 117 Q 135 117 134 117 Q 133 117 130.5 117 Q 128 117 127.5 117 Q 127 117 125 117 Q 123 117 122 117 Q 121 117 119.5 117 Q 118 117 116.5 117 Q 115 117 111.5 117 Q 108 117 106.5 117 Q 105 117 104 117.5 Q 103 118 99.5 118 Q 96 118 95 118 Q 94 118 92.5 117.5 Q 91 117 90 117 Q 89 117 88 117 Q 87 117 86.5 117 Q 86 117 85 117 Q 84 117 83 117 Q 82 117 81.5 117 Q 81 117 80 117 Q 79 117 78 117 Q 77 117 76 117 Q 75 117 74.5 117.5 Q 74 118 73 118 Q 72 118 71.5 118 Q 71 118 70.5 118 Q 70 118 69.5 118 Q 69 118 68.5 118 Q 68 118 67.5 118 Q 67 118 65.5 118 Q 64 118 63.5 118 Q 63 118 62 118 Q 61 118 60.5 118 Q 60 118 59 118 Q 58 118 57.5 118 Q 57 118 56.5 118 Q 56 118 55.5 118 Q 55 118 54.5 118 Q 54 118 53.5 118 Q 53 118 52 118 Q 51 118 49.5 117.5 Q 48 117 47.5 117 L 46.99 117" stroke-linecap="round" />
</g>
<g transform="matrix(1 0 0 1 78.93 76.5)"  >
<path style="stroke: rgb(0,0,0); stroke-width: 10; stroke-dasharray: none; stroke-linecap: round; stroke-dashoffset: 0; stroke-linejoin: round; stroke-miterlimit: 10; fill: none; fill-rule: nonzero; opacity: 1;"  transform=" translate(-78.93, -76.5)" d="M 74.99 61.99 Q 75 62 75 62.5 Q 75 63 75.5 63.5 Q 76 64 76.5 65 Q 77 66 78 67 Q 79 68 79.5 68.5 Q 80 69 80.5 69.5 Q 81 70 81.5 70.5 Q 82 71 82 71.5 Q 82 72 82.5 72 Q 83 72 83 72.5 Q 83 73 83.5 73 Q 84 73 84.5 73 Q 85 73 85 73.5 Q 85 74 85.5 74 Q 86 74 86 74.5 Q 86 75 86.5 75.5 Q 87 76 87.5 76 Q 88 76 88.5 76.5 Q 89 77 88.5 77.5 Q 88 78 87.5 78 Q 87 78 87 78.5 Q 87 79 86 79.5 Q 85 80 84.5 80.5 Q 84 81 83.5 81 Q 83 81 82 81.5 Q 81 82 80 83 Q 79 84 78.5 84.5 Q 78 85 77.5 85 Q 77 85 77 85.5 Q 77 86 76.5 86 Q 76 86 75.5 86 Q 75 86 75 86.5 Q 75 87 74.5 87 Q 74 87 73.5 87.5 Q 73 88 72 88.5 Q 71 89 71 89.5 Q 71 90 70.5 90 Q 70 90 69.5 90.5 L 68.99 91.01" stroke-linecap="round" />
</g>
<g transform="matrix(1 0 0 1 112 94)"  >
<path style="stroke: rgb(0,0,0); stroke-width: 10; stroke-dasharray: none; stroke-linecap: round; stroke-dashoffset: 0; stroke-linejoin: round; stroke-miterlimit: 10; fill: none; fill-rule: nonzero; opacity: 1;"  transform=" translate(-112, -94)" d="M 102.99 94 Q 103 94 103.5 94 Q 104 94 104.5 94 Q 105 94 105.5 94 Q 106 94 106.5 94 Q 107 94 107.5 94 Q 108 94 108.5 94 Q 109 94 109.5 94 Q 110 94 110.5 94 Q 111 94 111.5 94 Q 112 94 112.5 94 Q 113 94 113.5 94 Q 114 94 114.5 94 Q 115 94 115.5 94 Q 116 94 116.5 94 Q 117 94 117.5 94 Q 118 94 118.5 94 Q 119 94 119.5 94 Q 120 94 120.5 94 L 121.01 94" stroke-linecap="round" />
</g>
<g transform="matrix(1 0 0 1 100 147)"  >
<path style="stroke: rgb(0,0,0); stroke-width: 10; stroke-dasharray: none; stroke-linecap: round; stroke-dashoffset: 0; stroke-linejoin: round; stroke-miterlimit: 10; fill: none; fill-rule: nonzero; opacity: 1;"  transform=" translate(-100, -147)" d="M 33 128.99 Q 33 129 33 129.5 Q 33 130 33 130.5 Q 33 131 33 131.5 Q 33 132 33 132.5 Q 33 133 33 133.5 Q 33 134 33 134.5 Q 33 135 32.5 135 Q 32 135 32 135.5 Q 32 136 32 137 Q 32 138 32 138.5 Q 32 139 32 139.5 Q 32 140 32 141 Q 32 142 32 142.5 Q 32 143 32 144 Q 32 145 32 145.5 Q 32 146 32 146.5 Q 32 147 32 147.5 Q 32 148 32 149 Q 32 150 32 151 Q 32 152 32 152.5 Q 32 153 32 153.5 Q 32 154 32 154.5 Q 32 155 32 155.5 Q 32 156 32 156.5 Q 32 157 32 157.5 Q 32 158 32 158.5 Q 32 159 32 159.5 Q 32 160 32 160.5 Q 32 161 31.5 161 Q 31 161 31 161.5 Q 31 162 31 162.5 Q 31 163 31.5 163 Q 32 163 32.5 163 Q 33 163 33.5 163 Q 34 163 35 163 Q 36 163 37 163 Q 38 163 38.5 163 Q 39 163 39.5 163 Q 40 163 40.5 163 Q 41 163 41.5 163 Q 42 163 42.5 163 Q 43 163 44 163 Q 45 163 45.5 163 Q 46 163 46.5 163 Q 47 163 47.5 163 Q 48 163 48.5 163 Q 49 163 50.5 163 Q 52 163 53 163 Q 54 163 54.5 163 Q 55 163 56 163 Q 57 163 58 163 Q 59 163 60.5 163 Q 62 163 63.5 163 Q 65 163 65.5 163 Q 66 163 67.5 163 Q 69 163 71 163 Q 73 163 73.5 163 Q 74 163 76 163 Q 78 163 79 163 Q 80 163 80.5 163.5 Q 81 164 82 164 Q 83 164 83.5 164 Q 84 164 85 164 Q 86 164 87.5 164.5 Q 89 165 89.5 165 Q 90 165 91 165 Q 92 165 93 165 Q 94 165 94.5 165 Q 95 165 96 165 Q 97 165 98 165 Q 99 165 100 165 Q 101 165 102 164.5 Q 103 164 103.5 164 Q 104 164 105 164 Q 106 164 107 164 Q 108 164 108.5 164 Q 109 164 110 164 Q 111 164 111.5 163.5 Q 112 163 113 163 Q 114 163 115 163 Q 116 163 116.5 163 Q 117 163 117.5 163 Q 118 163 119 163 Q 120 163 121.5 162.5 Q 123 162 123.5 162 Q 124 162 124.5 162 Q 125 162 125.5 162 Q 126 162 126.5 162 Q 127 162 127.5 162 Q 128 162 128.5 162 Q 129 162 129.5 162 Q 130 162 130.5 162 Q 131 162 132 162 Q 133 162 134.5 162 Q 136 162 136.5 162 Q 137 162 137.5 162 Q 138 162 140 162 Q 142 162 143 162.5 Q 144 163 144.5 163 Q 145 163 145.5 163 Q 146 163 146.5 163 Q 147 163 147.5 163 Q 148 163 149 163.5 Q 150 164 150.5 164 Q 151 164 151.5 164 Q 152 164 152.5 164 Q 153 164 153.5 164 Q 154 164 154.5 164 Q 155 164 155.5 164 Q 156 164 157 164 Q 158 164 158.5 164 Q 159 164 159.5 164 Q 160 164 160.5 164 Q 161 164 161.5 164.5 Q 162 165 162.5 165 Q 163 165 163.5 165 Q 164 165 164.5 165 Q 165 165 165.5 165 Q 166 165 166.5 165 Q 167 165 167.5 164 Q 168 163 168 162.5 Q 168 162 168 161 Q 168 160 168 159.5 Q 168 159 168.5 158 Q 169 157 169 156 Q 169 155 169 154 Q 169 153 169 152.5 Q 169 152 168.5 151.5 Q 168 151 168 150 Q 168 149 168 148.5 Q 168 148 168 146.5 Q 168 145 167.5 144.5 Q 167 144 167 143.5 Q 167 143 167 142.5 Q 167 142 167 141.5 Q 167 141 167 140.5 Q 167 140 167 139.5 Q 167 139 166.5 139 Q 166 139 166 138.5 Q 166 138 166 137.5 Q 166 137 166 136.5 L 166 135.99" stroke-linecap="round" />
</g>
<g transform="matrix(1 0 0 1 95.5 137)"  >
<path style="stroke: rgb(0,0,0); stroke-width: 10; stroke-dasharray: none; stroke-linecap: round; stroke-dashoffset: 0; stroke-linejoin: round; stroke-miterlimit: 10; fill: none; fill-rule: nonzero; opacity: 1;"  transform=" translate(-95.5, -137)" d="M 44.99 136 Q 45 136 45.5 136 Q 46 136 46.5 136 Q 47 136 47.5 136 Q 48 136 49.5 136 Q 51 136 52 136 Q 53 136 54.5 136.5 Q 56 137 57 137 Q 58 137 60 137 Q 62 137 62.5 137 Q 63 137 63.5 137.5 Q 64 138 64.5 138 Q 65 138 65.5 138 Q 66 138 66.5 138 Q 67 138 67.5 138 Q 68 138 69 138 Q 70 138 70.5 138 Q 71 138 71.5 138 Q 72 138 73.5 138 Q 75 138 76 138 Q 77 138 78 138 Q 79 138 79.5 138 Q 80 138 81 138 Q 82 138 83 138 Q 84 138 84.5 138 Q 85 138 86 138 Q 87 138 87.5 138 Q 88 138 88.5 138 Q 89 138 90 138 Q 91 138 92 138 Q 93 138 94 138 Q 95 138 96 138 Q 97 138 97.5 138 Q 98 138 99 138 Q 100 138 101.5 137.5 Q 103 137 103.5 137 Q 104 137 104.5 137 Q 105 137 105.5 137 Q 106 137 106.5 137 Q 107 137 108 137 Q 109 137 110 137 Q 111 137 111.5 137 Q 112 137 112.5 137 Q 113 137 114.5 137 Q 116 137 117.5 137 Q 119 137 119.5 136.5 Q 120 136 121.5 136 Q 123 136 123.5 136 Q 124 136 125 136 Q 126 136 126.5 136 Q 127 136 127.5 136 Q 128 136 129 136 Q 130 136 130.5 136 Q 131 136 131.5 136 Q 132 136 133 136 Q 134 136 135 136 Q 136 136 136.5 136 Q 137 136 137.5 136.5 Q 138 137 138.5 137 Q 139 137 139.5 137 Q 140 137 140.5 137 Q 141 137 142 136.5 Q 143 136 143.5 136 Q 144 136 144.5 136 Q 145 136 145.5 136 L 146.01 136" stroke-linecap="round" />
</g>
<g transform="matrix(1 0 0 1 99.5 150.5)"  >
<path style="stroke: rgb(0,0,0); stroke-width: 10; stroke-dasharray: none; stroke-linecap: round; stroke-dashoffset: 0; stroke-linejoin: round; stroke-miterlimit: 10; fill: none; fill-rule: nonzero; opacity: 1;"  transform=" translate(-99.5, -150.5)" d="M 47 150.01 Q 47 150 47.5 150 Q 48 150 48 149.5 Q 48 149 48.5 149 Q 49 149 50 149 Q 51 149 52.5 149 Q 54 149 55.5 149 Q 57 149 58 149 Q 59 149 60 149 Q 61 149 61.5 149 Q 62 149 62.5 149 Q 63 149 63.5 149 Q 64 149 64.5 149 Q 65 149 65.5 149.5 Q 66 150 66.5 150 Q 67 150 67.5 150 Q 68 150 68.5 150 Q 69 150 69.5 150 Q 70 150 71 150.5 Q 72 151 72.5 151 Q 73 151 73.5 151 Q 74 151 74.5 151 Q 75 151 75.5 151 Q 76 151 76.5 151 Q 77 151 78 151 Q 79 151 80 151 Q 81 151 81.5 151 Q 82 151 83 151.5 Q 84 152 84.5 152 Q 85 152 85.5 152 Q 86 152 86.5 152 Q 87 152 88 152 Q 89 152 90 152 Q 91 152 91.5 152 Q 92 152 93 152 Q 94 152 94.5 152 Q 95 152 96 152 Q 97 152 97.5 152 Q 98 152 98.5 152 Q 99 152 100 152 Q 101 152 101.5 152 Q 102 152 102.5 152 Q 103 152 104 152 Q 105 152 105.5 152 Q 106 152 107 152 Q 108 152 108.5 152 Q 109 152 110 152 Q 111 152 111.5 152 Q 112 152 112.5 152 Q 113 152 113.5 152 Q 114 152 114.5 152 Q 115 152 115.5 152 Q 116 152 117 152 Q 118 152 118.5 152 Q 119 152 119.5 152 Q 120 152 121 152 Q 122 152 122 151.5 Q 122 151 123 151 Q 124 151 124.5 151 Q 125 151 125.5 151 Q 126 151 127 151 Q 128 151 128.5 151 Q 129 151 129.5 151 Q 130 151 130.5 151 Q 131 151 131.5 151 Q 132 151 133 151 Q 134 151 134.5 151 Q 135 151 135.5 151 Q 136 151 137 150.5 Q 138 150 138.5 150 Q 139 150 140 150 Q 141 150 141.5 150 Q 142 150 142.5 150 Q 143 150 143.5 150 Q 144 150 144.5 150 Q 145 150 146 150 Q 147 150 147.5 150 Q 148 150 148.5 150 Q 149 150 149.5 150 Q 150 150 150.5 150 Q 151 150 151.5 150 L 152.01 150" stroke-linecap="round" />
</g>
<g transform="matrix(1 0 0 1 70 130)"  >
<path style="stroke: rgb(0,0,0); stroke-width: 10; stroke-dasharray: none; stroke-linecap: round; stroke-dashoffset: 0; stroke-linejoin: round; stroke-miterlimit: 10; fill: none; fill-rule: nonzero; opacity: 1;"  transform=" translate(-70, -130)" d="M 70 128.99 Q 70 129 70 129.5 Q 70 130 70 130.5 L 70 131.01" stroke-linecap="round" />
</g>
<g transform="matrix(1 0 0 1 99 128)"  >
<path style="stroke: rgb(0,0,0); stroke-width: 10; stroke-dasharray: none; stroke-linecap: round; stroke-dashoffset: 0; stroke-linejoin: round; stroke-miterlimit: 10; fill: none; fill-rule: nonzero; opacity: 1;"  transform=" translate(-99, -128)" d="M 99 126.99 Q 99 127 99 127.5 Q 99 128 99 128.5 L 99 129.01" stroke-linecap="round" />
</g>
<g transform="matrix(1 0 0 1 126 141.5)"  >
<path style="stroke: rgb(0,0,0); stroke-width: 10; stroke-dasharray: none; stroke-linecap: round; stroke-dashoffset: 0; stroke-linejoin: round; stroke-miterlimit: 10; fill: none; fill-rule: nonzero; opacity: 1;"  transform=" translate(-126, -141.5)" d="M 126 139.99 Q 126 140 126 140.5 Q 126 141 126 141.5 Q 126 142 126 142.5 L 126 143.01" stroke-linecap="round" />
</g>
<g transform="matrix(1 0 0 1 83 142)"  >
<path style="stroke: rgb(0,0,0); stroke-width: 10; stroke-dasharray: none; stroke-linecap: round; stroke-dashoffset: 0; stroke-linejoin: round; stroke-miterlimit: 10; fill: none; fill-rule: nonzero; opacity: 1;"  transform=" translate(-83, -142)" d="M 83 140.99 Q 83 141 83 141.5 Q 83 142 83 142.5 L 83 143.01" stroke-linecap="round" />
</g>
<g transform="matrix(1 0 0 1 103 153.5)"  >
<path style="stroke: rgb(0,0,0); stroke-width: 10; stroke-dasharray: none; stroke-linecap: round; stroke-dashoffset: 0; stroke-linejoin: round; stroke-miterlimit: 10; fill: none; fill-rule: nonzero; opacity: 1;"  transform=" translate(-103, -153.5)" d="M 102.99 153 Q 103 153 103 153.5 L 103.01 154" stroke-linecap="round" />
</g>
<g transform="matrix(1 0 0 1 61 154)"  >
<path style="stroke: rgb(0,0,0); stroke-width: 10; stroke-dasharray: none; stroke-linecap: round; stroke-dashoffset: 0; stroke-linejoin: round; stroke-miterlimit: 10; fill: none; fill-rule: nonzero; opacity: 1;"  transform=" translate(-61, -154)" d="M 61 152.99 Q 61 153 61 153.5 Q 61 154 61 154.5 L 61 155.01" stroke-linecap="round" />
</g>
<g transform="matrix(1 0 0 1 142 155.5)"  >
<path style="stroke: rgb(0,0,0); stroke-width: 10; stroke-dasharray: none; stroke-linecap: round; stroke-dashoffset: 0; stroke-linejoin: round; stroke-miterlimit: 10; fill: none; fill-rule: nonzero; opacity: 1;"  transform=" translate(-142, -155.5)" d="M 141.99 155 Q 142 155 142 155.5 L 142.01 156" stroke-linecap="round" />
</g>
<g transform="matrix(1 0 0 1 141.5 129)"  >
<path style="stroke: rgb(0,0,0); stroke-width: 10; stroke-dasharray: none; stroke-linecap: round; stroke-dashoffset: 0; stroke-linejoin: round; stroke-miterlimit: 10; fill: none; fill-rule: nonzero; opacity: 1;"  transform=" translate(-141.5, -129)" d="M 142.01 131.01 Q 142 131 142 130.5 Q 142 130 141.5 129.5 Q 141 129 141 128.5 Q 141 128 141 127.5 L 141 126.99" stroke-linecap="round" />
</g>
<g transform="matrix(1 0 0 1 96 177.5)"  >
<path style="stroke: rgb(0,0,0); stroke-width: 10; stroke-dasharray: none; stroke-linecap: round; stroke-dashoffset: 0; stroke-linejoin: round; stroke-miterlimit: 10; fill: none; fill-rule: nonzero; opacity: 1;"  transform=" translate(-96, -177.5)" d="M 34 170.99 Q 34 171 34.5 171 Q 35 171 35 171.5 Q 35 172 35 172.5 Q 35 173 35.5 173 Q 36 173 36 173.5 Q 36 174 36.5 174 Q 37 174 37 174.5 Q 37 175 37.5 175.5 Q 38 176 38 176.5 Q 38 177 38.5 177.5 Q 39 178 39 178.5 Q 39 179 39.5 179 Q 40 179 40.5 179.5 Q 41 180 42 180.5 Q 43 181 43 181.5 Q 43 182 44.5 182.5 Q 46 183 46.5 183.5 Q 47 184 47.5 184 Q 48 184 48.5 184 Q 49 184 49 183.5 Q 49 183 49.5 183 Q 50 183 50.5 183 Q 51 183 52 183 Q 53 183 53.5 183 Q 54 183 54.5 183 Q 55 183 56 183 Q 57 183 57.5 183 Q 58 183 59 183 Q 60 183 60.5 183 Q 61 183 61.5 183 Q 62 183 62.5 183 Q 63 183 64 183 Q 65 183 65.5 183 Q 66 183 67 183 Q 68 183 69 183 Q 70 183 70.5 183 Q 71 183 71.5 183 Q 72 183 72.5 183 Q 73 183 73.5 183 Q 74 183 74.5 183 Q 75 183 75.5 183 Q 76 183 76.5 183 Q 77 183 77.5 183.5 Q 78 184 79 184 Q 80 184 81 184 Q 82 184 83 184 Q 84 184 85 184 Q 86 184 86.5 184 Q 87 184 87.5 184 Q 88 184 88.5 184 Q 89 184 90 184 Q 91 184 92 184 Q 93 184 93.5 184 Q 94 184 94.5 184 Q 95 184 95.5 184 Q 96 184 97 184 Q 98 184 98.5 184 Q 99 184 100.5 184 Q 102 184 102.5 184 Q 103 184 104 184 Q 105 184 105.5 184 Q 106 184 107 184 Q 108 184 108.5 184 Q 109 184 110 183.5 Q 111 183 111.5 183 Q 112 183 112.5 183 Q 113 183 114 183 Q 115 183 115.5 183 Q 116 183 117 183 Q 118 183 118.5 183 Q 119 183 119.5 183 Q 120 183 120.5 183 Q 121 183 122.5 183 Q 124 183 124.5 183 Q 125 183 126.5 183 Q 128 183 128.5 183 Q 129 183 129.5 183 Q 130 183 131.5 183 Q 133 183 133.5 183 Q 134 183 135 183 Q 136 183 136.5 183 Q 137 183 137.5 183 Q 138 183 138.5 183 Q 139 183 139.5 183 Q 140 183 140.5 183 Q 141 183 141.5 183 Q 142 183 142.5 183 Q 143 183 143.5 183 Q 144 183 144.5 183 Q 145 183 145.5 183 Q 146 183 146.5 183 Q 147 183 147.5 183 Q 148 183 148.5 183 Q 149 183 149.5 182.5 Q 150 182 150.5 182 Q 151 182 151 181.5 Q 151 181 151.5 181 Q 152 181 152.5 180.5 Q 153 180 153.5 180 Q 154 180 154 179.5 Q 154 179 154.5 178.5 Q 155 178 155.5 177.5 Q 156 177 156.5 176.5 Q 157 176 157.5 175.5 Q 158 175 158 174.5 L 158 173.99" stroke-linecap="round" />
</g>
</svg>