<?xml version="1.0" encoding="UTF-8" standalone="no" ?>
<!DOCTYPE svg PUBLIC "-//W3C//DTD SVG 1.1//EN" "http://www.w3.org/Graphics/SVG/1.1/DTD/svg11.dtd">
<svg xmlns="http://www.w3.org/2000/svg" xmlns:xlink="http://www.w3.org/1999/xlink" version="1.1" width="200" height="200" viewBox="0 0 200 200" xml:space="preserve">
<desc>Created with Fabric.js 3.6.3</desc>
<defs>
</defs>
<g transform="matrix(1 0 0 1 94.5 96.57)"  >
<path style="stroke: rgb(0,0,0); stroke-width: 10; stroke-dasharray: none; stroke-linecap: round; stroke-dashoffset: 0; stroke-linejoin: round; stroke-miterlimit: 10; fill: none; fill-rule: nonzero; opacity: 1;"  transform=" translate(-94.5, -96.56)" d="M 72.99 50.01 Q 73 50 73 49.5 Q 73 49 73.5 48.5 Q 74 48 74 47.5 Q 74 47 74.5 46 Q 75 45 75.5 44.5 Q 76 44 76.5 43.5 Q 77 43 77.5 42.5 Q 78 42 78 41 Q 78 40 78.5 40 Q 79 40 79 39.5 Q 79 39 79.5 38.5 Q 80 38 80 37.5 Q 80 37 80.5 36.5 Q 81 36 81.5 35 Q 82 34 82 33.5 Q 82 33 82.5 33 Q 83 33 83 32.5 Q 83 32 83.5 31.5 Q 84 31 84 30.5 Q 84 30 84.5 29.5 Q 85 29 85 28.5 Q 85 28 85.5 27 Q 86 26 86.5 25.5 Q 87 25 87.5 24.5 Q 88 24 88.5 23.5 Q 89 23 89 22.5 Q 89 22 89.5 21.5 Q 90 21 90.5 20.5 Q 91 20 91.5 19 Q 92 18 92.5 17.5 Q 93 17 93.5 16.5 Q 94 16 94.5 15.5 Q 95 15 95.5 14.5 Q 96 14 96 13.5 Q 96 13 96.5 13 Q 97 13 97 12.5 Q 97 12 97 12.5 Q 97 13 97.5 13 Q 98 13 98.5 14 Q 99 15 99.5 15 Q 100 15 101 16 Q 102 17 102.5 18 Q 103 19 103.5 20 Q 104 21 104.5 22 Q 105 23 106 24.5 Q 107 26 107.5 26.5 Q 108 27 108.5 28 Q 109 29 109 29.5 Q 109 30 109.5 30.5 Q 110 31 110 31.5 Q 110 32 110.5 32.5 Q 111 33 111.5 34 Q 112 35 112.5 35.5 Q 113 36 113.5 37 Q 114 38 114 38.5 Q 114 39 114.5 40.5 Q 115 42 115.5 42 Q 116 42 116.5 43.5 Q 117 45 117 45.5 Q 117 46 117.5 46.5 Q 118 47 118 47.5 Q 118 48 118.5 48.5 Q 119 49 119 49.5 Q 119 50 119 50.5 Q 119 51 119.5 51 Q 120 51 120 51.5 Q 120 52 120 52.5 Q 120 53 120.5 53 Q 121 53 121 53.5 Q 121 54 121 54.5 Q 121 55 121.5 55 Q 122 55 122.5 54.5 Q 123 54 123.5 54 Q 124 54 125 54 Q 126 54 126.5 53.5 Q 127 53 127.5 53 Q 128 53 128.5 53 Q 129 53 129.5 53 Q 130 53 131 52.5 Q 132 52 132.5 52 Q 133 52 133.5 52 Q 134 52 134.5 51.5 Q 135 51 135.5 51 Q 136 51 137 50.5 Q 138 50 138.5 50 Q 139 50 139.5 50 Q 140 50 141.5 49.5 Q 143 49 143.5 49 Q 144 49 145.5 48.5 Q 147 48 147.5 48 Q 148 48 149 47.5 Q 150 47 151.5 47 Q 153 47 153.5 47 Q 154 47 154.5 46.5 Q 155 46 155.5 46 Q 156 46 156.5 46 Q 157 46 157.5 46 Q 158 46 158.5 46 Q 159 46 159 45.5 Q 159 45 159.5 45 Q 160 45 160.5 45 Q 161 45 161.5 45 Q 162 45 162.5 45 Q 163 45 163.5 45 Q 164 45 164.5 45 Q 165 45 165.5 45 Q 166 45 166.5 45 Q 167 45 167.5 45 Q 168 45 168.5 45 Q 169 45 169.5 45 Q 170 45 170 45.5 Q 170 46 170.5 46 Q 171 46 171.5 46 Q 172 46 172.5 46 Q 173 46 173 46.5 Q 173 47 173.5 47 Q 174 47 174 47.5 Q 174 48 174 49 Q 174 50 174 51 Q 174 52 174 52.5 Q 174 53 174 53.5 Q 174 54 174 54.5 Q 174 55 174 55.5 Q 174 56 174 56.5 Q 174 57 173.5 58 Q 173 59 173 59.5 Q 173 60 173 60.5 Q 173 61 172.5 61.5 Q 172 62 171.5 63 Q 171 64 171 64.5 Q 171 65 170.5 66 Q 170 67 169.5 68 Q 169 69 168.5 70 Q 168 71 167.5 71.5 Q 167 72 166 73 Q 165 74 165 74.5 Q 165 75 164 76 Q 163 77 162 78.5 Q 161 80 160.5 80.5 Q 160 81 158.5 82 Q 157 83 156.5 84 Q 156 85 154 87 Q 152 89 151.5 90 Q 151 91 150.5 91 Q 150 91 150 91.5 Q 150 92 149 93 Q 148 94 147.5 95 Q 147 96 146 97 Q 145 98 144.5 98.5 Q 144 99 144 99.5 Q 144 100 143.5 101 Q 143 102 142.5 102 Q 142 102 141.5 103 Q 141 104 141 104.5 Q 141 105 140.5 105.5 Q 140 106 140 106.5 Q 140 107 139.5 107.5 Q 139 108 139 108.5 Q 139 109 139 109.5 Q 139 110 138.5 110.5 Q 138 111 138 111.5 Q 138 112 138 113 Q 138 114 138 114.5 Q 138 115 138 115.5 Q 138 116 138 116.5 Q 138 117 138 117.5 Q 138 118 138 118.5 Q 138 119 138.5 119.5 Q 139 120 139 120.5 Q 139 121 139.5 121 Q 140 121 140.5 122.5 Q 141 124 141.5 125 Q 142 126 142.5 126.5 Q 143 127 143.5 128 Q 144 129 144 129.5 Q 144 130 144.5 130.5 Q 145 131 145.5 132 Q 146 133 146.5 134.5 Q 147 136 148 138 Q 149 140 149.5 141 Q 150 142 150.5 142.5 Q 151 143 151 143.5 Q 151 144 151 144.5 Q 151 145 151 145.5 Q 151 146 151 146.5 Q 151 147 151.5 147.5 Q 152 148 152 149 Q 152 150 152.5 150 Q 153 150 153 151 Q 153 152 153 152.5 Q 153 153 153.5 154 Q 154 155 154 156 Q 154 157 154 158 Q 154 159 154.5 159.5 Q 155 160 155 160.5 Q 155 161 155 161.5 Q 155 162 155 162.5 Q 155 163 155 163.5 Q 155 164 155 164.5 Q 155 165 155 165.5 Q 155 166 155 166.5 Q 155 167 155 168.5 Q 155 170 155 170.5 Q 155 171 155 171.5 Q 155 172 155 172.5 Q 155 173 154.5 173.5 Q 154 174 154 174.5 Q 154 175 153.5 175 Q 153 175 153 175.5 Q 153 176 153 176.5 Q 153 177 152.5 177 Q 152 177 152 176.5 Q 152 176 151.5 175.5 Q 151 175 150 174.5 Q 149 174 148 173.5 Q 147 173 146 173 Q 145 173 142 171 Q 139 169 136 168 Q 133 167 131 166.5 Q 129 166 128.5 165.5 Q 128 165 127.5 165 Q 127 165 126 164.5 Q 125 164 124.5 164 Q 124 164 123 164 Q 122 164 121.5 163.5 Q 121 163 119.5 163 Q 118 163 117 162.5 Q 116 162 115.5 162 Q 115 162 113.5 162 Q 112 162 111.5 162 Q 111 162 110.5 162 Q 110 162 109.5 161.5 Q 109 161 108.5 161 Q 108 161 107.5 161 Q 107 161 106.5 161 Q 106 161 105.5 161 Q 105 161 104.5 160.5 Q 104 160 103.5 160 Q 103 160 102.5 160 Q 102 160 101.5 160 Q 101 160 100.5 159.5 Q 100 159 99.5 158.5 Q 99 158 98 157.5 Q 97 157 96.5 157 Q 96 157 95.5 157 Q 95 157 94.5 156.5 Q 94 156 93.5 156 Q 93 156 93 155.5 Q 93 155 92.5 155 Q 92 155 92 154.5 Q 92 154 91.5 154 Q 91 154 90.5 154 Q 90 154 89 154.5 Q 88 155 87.5 155 Q 87 155 86 155.5 Q 85 156 84 156.5 Q 83 157 82.5 157 Q 82 157 81.5 157.5 Q 81 158 80.5 158 Q 80 158 79.5 158.5 Q 79 159 78.5 159 Q 78 159 77.5 159.5 Q 77 160 76.5 160 Q 76 160 75 160.5 Q 74 161 74 161.5 Q 74 162 73 162.5 Q 72 163 71.5 163 Q 71 163 70 164 Q 69 165 68.5 165 Q 68 165 67.5 165.5 Q 67 166 66 166.5 Q 65 167 63.5 169 Q 62 171 61.5 171.5 Q 61 172 60 172.5 Q 59 173 59 173.5 Q 59 174 58 174.5 Q 57 175 56.5 175 Q 56 175 55.5 175.5 Q 55 176 54.5 176 Q 54 176 53.5 176.5 Q 53 177 52.5 177 Q 52 177 51.5 177.5 Q 51 178 50.5 178 Q 50 178 49.5 178 Q 49 178 48.5 178.5 Q 48 179 47.5 179 Q 47 179 46.5 179.5 Q 46 180 45.5 180 Q 45 180 44 180 Q 43 180 42.5 180 Q 42 180 42 180.5 Q 42 181 41.5 181 Q 41 181 40.5 181 Q 40 181 39.5 181 Q 39 181 38.5 181 Q 38 181 37.5 181 Q 37 181 36.5 181 Q 36 181 35.5 181 Q 35 181 35 180.5 Q 35 180 34.5 179 Q 34 178 34 177.5 Q 34 177 34 176.5 Q 34 176 34 175.5 Q 34 175 34 174.5 Q 34 174 34 173 Q 34 172 34 171 Q 34 170 34 169 Q 34 168 34 167 Q 34 166 34 165 Q 34 164 34 162.5 Q 34 161 34 160.5 Q 34 160 34 159 Q 34 158 34 157.5 Q 34 157 34 154 Q 34 151 34.5 150 Q 35 149 35 147.5 Q 35 146 35.5 145 Q 36 144 36 143 Q 36 142 36.5 141.5 Q 37 141 37 140.5 Q 37 140 37 139.5 Q 37 139 38 138 Q 39 137 39 136 Q 39 135 39.5 135 Q 40 135 40 134.5 Q 40 134 40.5 133.5 Q 41 133 41.5 132.5 Q 42 132 42 131.5 Q 42 131 42.5 130.5 Q 43 130 43 129.5 Q 43 129 43.5 128.5 Q 44 128 44 127.5 Q 44 127 44.5 126.5 Q 45 126 45.5 125 Q 46 124 46.5 123.5 Q 47 123 47 122.5 Q 47 122 47.5 122 Q 48 122 48 121.5 Q 48 121 48 120.5 Q 48 120 48.5 120 Q 49 120 49 119.5 Q 49 119 49 118.5 Q 49 118 49 117.5 Q 49 117 48.5 116.5 Q 48 116 48 114.5 Q 48 113 47.5 112 Q 47 111 47 110 Q 47 109 46.5 108 Q 46 107 45.5 106 Q 45 105 44.5 104.5 Q 44 104 43.5 103 Q 43 102 42.5 101.5 Q 42 101 41 99.5 Q 40 98 39.5 97.5 Q 39 97 38 96 Q 37 95 36.5 94.5 Q 36 94 35.5 93 Q 35 92 34 91 Q 33 90 33 89.5 Q 33 89 32 88.5 Q 31 88 30.5 87 Q 30 86 29.5 85.5 Q 29 85 28.5 84 Q 28 83 27.5 83 Q 27 83 26 82 Q 25 81 25 80.5 Q 25 80 24 79 Q 23 78 22.5 77.5 Q 22 77 21.5 76.5 Q 21 76 20.5 75.5 Q 20 75 20 74.5 Q 20 74 19.5 73.5 Q 19 73 18.5 72 Q 18 71 18 70.5 Q 18 70 17.5 69.5 Q 17 69 17 68.5 Q 17 68 17 66.5 Q 17 65 16.5 64.5 Q 16 64 16 63.5 Q 16 63 16 62.5 Q 16 62 15.5 61.5 Q 15 61 15 60.5 Q 15 60 15 59.5 Q 15 59 16 58.5 Q 17 58 18.5 58 Q 20 58 20.5 58 Q 21 58 23 58 Q 25 58 25.5 57.5 Q 26 57 27.5 57 Q 29 57 30 57 Q 31 57 32.5 57 Q 34 57 35.5 57 Q 37 57 37.5 57 Q 38 57 39 57 Q 40 57 41 57 Q 42 57 43 57 Q 44 57 44.5 57 Q 45 57 47 57 Q 49 57 50 57 Q 51 57 52 57 Q 53 57 53.5 57 Q 54 57 54.5 57 Q 55 57 55.5 57 Q 56 57 57 57 Q 58 57 58 56.5 Q 58 56 59 56 Q 60 56 60.5 56 Q 61 56 61.5 56 Q 62 56 62 55.5 Q 62 55 63 55 Q 64 55 64.5 55 Q 65 55 65 54.5 Q 65 54 65.5 54 L 66.01 54" stroke-linecap="round" />
</g>
<g transform="matrix(0.96 -0.28 0.28 0.96 76.51 81.51)"  >
<path style="stroke: rgb(0,0,0); stroke-width: 10; stroke-dasharray: none; stroke-linecap: round; stroke-dashoffset: 0; stroke-linejoin: round; stroke-miterlimit: 10; fill: none; fill-rule: nonzero; opacity: 1;"  transform=" translate(-76.5, -81.5)" d="M 79.01 72 Q 79 72 79 72.5 Q 79 73 78.5 73 Q 78 73 78 73.5 Q 78 74 78 74.5 Q 78 75 78 75.5 Q 78 76 77.5 76 Q 77 76 77 77.5 Q 77 79 77 79.5 Q 77 80 76.5 80.5 Q 76 81 76 81.5 Q 76 82 76 83 Q 76 84 75.5 85 Q 75 86 75 86.5 Q 75 87 75 87.5 Q 75 88 75 88.5 Q 75 89 74.5 89 Q 74 89 74 89.5 Q 74 90 74 90.5 L 74 91.01" stroke-linecap="round" />
</g>
<g transform="matrix(1 0.08 -0.08 1 106 81.5)"  >
<path style="stroke: rgb(0,0,0); stroke-width: 10; stroke-dasharray: none; stroke-linecap: round; stroke-dashoffset: 0; stroke-linejoin: round; stroke-miterlimit: 10; fill: none; fill-rule: nonzero; opacity: 1;"  transform=" translate(-102, -81.5)" d="M 101 71.99 Q 101 72 101 72.5 Q 101 73 101 73.5 Q 101 74 101 74.5 Q 101 75 101.5 75.5 Q 102 76 102 76.5 Q 102 77 102 77.5 Q 102 78 102 78.5 Q 102 79 102.5 79.5 Q 103 80 103 80.5 Q 103 81 103 81.5 Q 103 82 103 82.5 Q 103 83 103 83.5 Q 103 84 103 84.5 Q 103 85 103 85.5 Q 103 86 103 86.5 Q 103 87 103 87.5 Q 103 88 103 88.5 Q 103 89 103 89.5 Q 103 90 103 90.5 Q 103 91 102.5 91 L 101.99 91" stroke-linecap="round" />
</g>
<g transform="matrix(1 0 0 1 91 121.5)"  >
<path style="stroke: rgb(0,0,0); stroke-width: 10; stroke-dasharray: none; stroke-linecap: round; stroke-dashoffset: 0; stroke-linejoin: round; stroke-miterlimit: 10; fill: none; fill-rule: nonzero; opacity: 1;"  transform=" translate(-91, -121.5)" d="M 67.99 114 Q 68 114 68 114.5 Q 68 115 68.5 115 Q 69 115 69 115.5 Q 69 116 69 116.5 Q 69 117 69.5 117.5 Q 70 118 70 118.5 Q 70 119 70.5 119.5 Q 71 120 72 121 Q 73 122 73.5 122.5 Q 74 123 74.5 123 Q 75 123 75 123.5 Q 75 124 75.5 124.5 Q 76 125 76.5 125 Q 77 125 77 125.5 Q 77 126 77.5 126 Q 78 126 78.5 126 Q 79 126 79 126.5 Q 79 127 79.5 127 Q 80 127 80.5 127.5 Q 81 128 81.5 128 Q 82 128 82.5 128 Q 83 128 83 128.5 Q 83 129 83.5 129 Q 84 129 84.5 129 Q 85 129 85.5 129 Q 86 129 86.5 129.5 Q 87 130 87.5 130 Q 88 130 88.5 130 Q 89 130 89.5 130 Q 90 130 90.5 130 Q 91 130 91.5 129.5 Q 92 129 92.5 129 Q 93 129 93.5 129 Q 94 129 94 128.5 Q 94 128 94.5 128 Q 95 128 95.5 128 Q 96 128 96.5 127.5 Q 97 127 97.5 127 Q 98 127 98 126.5 Q 98 126 98.5 126 Q 99 126 99.5 126 Q 100 126 100 125.5 Q 100 125 100.5 125 Q 101 125 101.5 124.5 Q 102 124 102.5 124 Q 103 124 103.5 124 Q 104 124 104 123.5 Q 104 123 104.5 123 Q 105 123 105.5 122.5 Q 106 122 106.5 122 Q 107 122 107 121.5 Q 107 121 107.5 121 Q 108 121 108.5 120.5 Q 109 120 109.5 120 Q 110 120 110 119.5 Q 110 119 110.5 118.5 Q 111 118 111.5 118 Q 112 118 112 117.5 Q 112 117 112.5 116.5 Q 113 116 113 115.5 Q 113 115 113.5 114.5 Q 114 114 114 113.5 L 114 112.99" stroke-linecap="round" />
</g>
<g transform="matrix(1 0 0 1 90.5 112.5)"  >
<path style="stroke: rgb(0,0,0); stroke-width: 10; stroke-dasharray: none; stroke-linecap: round; stroke-dashoffset: 0; stroke-linejoin: round; stroke-miterlimit: 10; fill: none; fill-rule: nonzero; opacity: 1;"  transform=" translate(-90.5, -109.5)" d="M 72.99 110 Q 73 110 73.5 110 Q 74 110 74.5 110 Q 75 110 75.5 110 Q 76 110 76.5 110 Q 77 110 77.5 109.5 Q 78 109 78.5 109 Q 79 109 79.5 109 Q 80 109 80.5 109 Q 81 109 82 109 Q 83 109 83.5 109 Q 84 109 84.5 109 Q 85 109 85.5 109 Q 86 109 86.5 109 Q 87 109 87.5 109 Q 88 109 88.5 109 Q 89 109 89.5 109 Q 90 109 90.5 109 Q 91 109 91.5 109 Q 92 109 92.5 109 Q 93 109 93.5 109 Q 94 109 94.5 109 Q 95 109 96 109 Q 97 109 97.5 109 Q 98 109 98.5 109 Q 99 109 99.5 109 Q 100 109 100.5 109 Q 101 109 101.5 109 Q 102 109 102.5 109 Q 103 109 103.5 109 Q 104 109 104.5 109 Q 105 109 105.5 109 Q 106 109 106.5 109 Q 107 109 107.5 109 L 108.01 109" stroke-linecap="round" />
</g>
</svg>