<?xml version="1.0" encoding="UTF-8" standalone="no" ?>
<!DOCTYPE svg PUBLIC "-//W3C//DTD SVG 1.1//EN" "http://www.w3.org/Graphics/SVG/1.1/DTD/svg11.dtd">
<svg xmlns="http://www.w3.org/2000/svg" xmlns:xlink="http://www.w3.org/1999/xlink" version="1.1" width="200" height="200" viewBox="0 0 200 200" xml:space="preserve">
<desc>Created with Fabric.js 3.6.3</desc>
<defs>
</defs>
<g transform="matrix(1 0 0 1 119 119)"  >
<path style="stroke: rgb(0,0,0); stroke-width: 10; stroke-dasharray: none; stroke-linecap: round; stroke-dashoffset: 0; stroke-linejoin: round; stroke-miterlimit: 10; fill: none; fill-rule: nonzero; opacity: 1;"  transform=" translate(-119, -119)" d="M 102 105.99 Q 102 106 102 106.5 Q 102 107 102 107.5 Q 102 108 102 108.5 Q 102 109 102 110 Q 102 111 102 111.5 Q 102 112 102 113 Q 102 114 102 114.5 Q 102 115 102 116.5 Q 102 118 102 118.5 Q 102 119 102 119.5 Q 102 120 102 120.5 Q 102 121 102 121.5 Q 102 122 102 122.5 Q 102 123 102 123.5 Q 102 124 102 124.5 Q 102 125 102 125.5 Q 102 126 102 126.5 Q 102 127 102 127.5 Q 102 128 102 128.5 Q 102 129 102.5 129.5 Q 103 130 103 130.5 Q 103 131 103 131.5 Q 103 132 103 132.5 Q 103 133 103 133.5 Q 103 134 103.5 134 Q 104 134 105 134 Q 106 134 107 134 Q 108 134 108.5 134 Q 109 134 109.5 134 Q 110 134 110.5 134 Q 111 134 111.5 134 Q 112 134 112.5 133.5 Q 113 133 113.5 133 Q 114 133 114.5 133 Q 115 133 115.5 133 Q 116 133 116.5 133 Q 117 133 117.5 133 Q 118 133 118.5 133 Q 119 133 119.5 133 Q 120 133 120.5 133 Q 121 133 121.5 133 Q 122 133 122.5 133 Q 123 133 124 133.5 Q 125 134 125.5 134 Q 126 134 126.5 134 Q 127 134 127.5 134 Q 128 134 128.5 134 Q 129 134 129.5 134.5 Q 130 135 130.5 135 Q 131 135 131.5 135 Q 132 135 132.5 135 Q 133 135 133 134.5 Q 133 134 133.5 134 Q 134 134 134 133.5 Q 134 133 134 132 Q 134 131 134.5 130.5 Q 135 130 135 129 Q 135 128 135 127.5 Q 135 127 135 125 Q 135 123 135 121.5 Q 135 120 135 119.5 Q 135 119 135.5 117.5 Q 136 116 136 115 Q 136 114 136 113.5 Q 136 113 136 112.5 Q 136 112 136 111.5 Q 136 111 136 110.5 Q 136 110 135.5 108 Q 135 106 135 105.5 Q 135 105 135 104.5 Q 135 104 135 103.5 Q 135 103 134.5 103 Q 134 103 133.5 103 Q 133 103 132 103 Q 131 103 130 103 Q 129 103 128.5 103 Q 128 103 127.5 103 Q 127 103 126 103 Q 125 103 124 103 Q 123 103 122.5 103 Q 122 103 121.5 103 Q 121 103 120.5 103 Q 120 103 119 103.5 Q 118 104 117 104 Q 116 104 115 104 Q 114 104 113.5 104 Q 113 104 112.5 104 Q 112 104 111.5 104 Q 111 104 110.5 104 Q 110 104 109.5 104 Q 109 104 108 104 Q 107 104 106.5 104 L 105.99 104" stroke-linecap="round" />
</g>
<g transform="matrix(1 0 0 1 164 118.5)"  >
<path style="stroke: rgb(0,0,0); stroke-width: 10; stroke-dasharray: none; stroke-linecap: round; stroke-dashoffset: 0; stroke-linejoin: round; stroke-miterlimit: 10; fill: none; fill-rule: nonzero; opacity: 1;"  transform=" translate(-164, -118.5)" d="M 151 103.99 Q 151 104 151 104.5 Q 151 105 151 105.5 Q 151 106 151 107 Q 151 108 151 108.5 Q 151 109 151 109.5 Q 151 110 151 110.5 Q 151 111 151 111.5 Q 151 112 151 112.5 Q 151 113 151 113.5 Q 151 114 151 114.5 Q 151 115 151 115.5 Q 151 116 151 116.5 Q 151 117 151 117.5 Q 151 118 151 118.5 Q 151 119 151 119.5 Q 151 120 151 120.5 Q 151 121 151 121.5 Q 151 122 151 122.5 Q 151 123 151 123.5 Q 151 124 151 124.5 Q 151 125 151 125.5 Q 151 126 151 126.5 Q 151 127 151 127.5 Q 151 128 151 128.5 Q 151 129 151 129.5 Q 151 130 151 130.5 Q 151 131 151 131.5 Q 151 132 151 132.5 Q 151 133 151.5 133 Q 152 133 152 133.5 Q 152 134 152.5 134 Q 153 134 154.5 134 Q 156 134 157 134 Q 158 134 158.5 134.5 Q 159 135 159.5 135 Q 160 135 160.5 135 Q 161 135 161.5 135 Q 162 135 162.5 135 Q 163 135 163.5 135 Q 164 135 164.5 135 Q 165 135 165.5 135 Q 166 135 166.5 135 Q 167 135 167.5 135 Q 168 135 168.5 135 Q 169 135 169.5 135 Q 170 135 170.5 135 Q 171 135 171.5 134.5 Q 172 134 172.5 134 Q 173 134 173.5 134 Q 174 134 174.5 133.5 Q 175 133 175.5 133 Q 176 133 176.5 133 Q 177 133 177 132.5 Q 177 132 177 131.5 Q 177 131 177 130.5 Q 177 130 177 129.5 Q 177 129 177 128 Q 177 127 177 126.5 Q 177 126 177 125.5 Q 177 125 177 124.5 Q 177 124 177 123 Q 177 122 177 121.5 Q 177 121 177 120.5 Q 177 120 177 119.5 Q 177 119 177 118.5 Q 177 118 177 117.5 Q 177 117 177 116.5 Q 177 116 177 115 Q 177 114 177 113.5 Q 177 113 176.5 113 Q 176 113 176 112.5 Q 176 112 176 111 Q 176 110 176 109.5 Q 176 109 176 108.5 Q 176 108 176 107.5 Q 176 107 175.5 107 Q 175 107 175 106.5 Q 175 106 174.5 106 Q 174 106 173.5 105.5 Q 173 105 173 104.5 Q 173 104 173 103.5 Q 173 103 172.5 103 Q 172 103 171.5 103 Q 171 103 170.5 103 Q 170 103 169.5 103 Q 169 103 168.5 103 Q 168 103 167.5 103 Q 167 103 166.5 103 Q 166 103 165 103 Q 164 103 164 102.5 Q 164 102 163.5 102 Q 163 102 162.5 102 Q 162 102 161.5 102 Q 161 102 160.5 102 Q 160 102 159.5 102 L 158.99 102" stroke-linecap="round" />
</g>
<g transform="matrix(1 0 0 1 161 163)"  >
<path style="stroke: rgb(0,0,0); stroke-width: 10; stroke-dasharray: none; stroke-linecap: round; stroke-dashoffset: 0; stroke-linejoin: round; stroke-miterlimit: 10; fill: none; fill-rule: nonzero; opacity: 1;"  transform=" translate(-161, -163)" d="M 147 151.99 Q 147 152 147 152.5 Q 147 153 147 153.5 Q 147 154 147 154.5 Q 147 155 147 156 Q 147 157 147 157.5 Q 147 158 147 158.5 Q 147 159 146.5 160 Q 146 161 146 161.5 Q 146 162 146 162.5 Q 146 163 146 163.5 Q 146 164 146 164.5 Q 146 165 146 166 Q 146 167 146 167.5 Q 146 168 146 168.5 Q 146 169 145.5 169.5 Q 145 170 145 170.5 Q 145 171 145 171.5 Q 145 172 145 172.5 Q 145 173 145 173.5 Q 145 174 145 174.5 Q 145 175 145.5 175.5 Q 146 176 146 176.5 Q 146 177 146.5 177.5 Q 147 178 147.5 178.5 Q 148 179 148.5 179 Q 149 179 149.5 179 Q 150 179 150.5 179 Q 151 179 152 179 Q 153 179 153.5 179 Q 154 179 154.5 179 Q 155 179 156 179 Q 157 179 157.5 179 Q 158 179 158.5 179 Q 159 179 159.5 179 Q 160 179 160.5 179 Q 161 179 161.5 179 Q 162 179 162.5 179 Q 163 179 163.5 179 Q 164 179 164.5 179 Q 165 179 165.5 179 Q 166 179 166.5 179 Q 167 179 167.5 179 Q 168 179 168.5 179 Q 169 179 169.5 179 Q 170 179 170.5 179 Q 171 179 171.5 179 Q 172 179 172.5 179 Q 173 179 173.5 179 Q 174 179 174 178.5 Q 174 178 174.5 178 Q 175 178 175 177.5 Q 175 177 175 176.5 Q 175 176 175 175.5 Q 175 175 175 174.5 Q 175 174 175 173.5 Q 175 173 175 172 Q 175 171 175 170.5 Q 175 170 175 169.5 Q 175 169 175 168.5 Q 175 168 175 167.5 Q 175 167 175 166.5 Q 175 166 175.5 165 Q 176 164 176 163 Q 176 162 176 161.5 Q 176 161 176 160.5 Q 176 160 176 159.5 Q 176 159 176 158.5 Q 176 158 176 157 Q 176 156 176.5 155.5 Q 177 155 177 154.5 Q 177 154 177 152 Q 177 150 177 149.5 Q 177 149 177 148.5 Q 177 148 177 147.5 Q 177 147 176.5 147 Q 176 147 175.5 147 Q 175 147 174.5 147 Q 174 147 173.5 147 Q 173 147 172 147 Q 171 147 170.5 147 Q 170 147 169 147 Q 168 147 167 147 Q 166 147 165 147 Q 164 147 163.5 147 Q 163 147 162.5 147 Q 162 147 161.5 147 Q 161 147 160.5 147 Q 160 147 159.5 147 Q 159 147 159 147.5 Q 159 148 158.5 148 Q 158 148 157.5 148 Q 157 148 156.5 148 Q 156 148 155.5 148 Q 155 148 154.5 148 Q 154 148 153.5 148 L 152.99 148" stroke-linecap="round" />
</g>
<g transform="matrix(1 0 0 1 115 162.5)"  >
<path style="stroke: rgb(0,0,0); stroke-width: 10; stroke-dasharray: none; stroke-linecap: round; stroke-dashoffset: 0; stroke-linejoin: round; stroke-miterlimit: 10; fill: none; fill-rule: nonzero; opacity: 1;"  transform=" translate(-115, -162.5)" d="M 101.99 150.99 Q 102 151 102 151.5 Q 102 152 102.5 152.5 Q 103 153 103 153.5 Q 103 154 103 154.5 Q 103 155 103 155.5 Q 103 156 103 156.5 Q 103 157 103 157.5 Q 103 158 103 158.5 Q 103 159 103 159.5 Q 103 160 103 160.5 Q 103 161 103 161.5 Q 103 162 103 162.5 Q 103 163 103 163.5 Q 103 164 103 164.5 Q 103 165 103 165.5 Q 103 166 103 167.5 Q 103 169 103 169.5 Q 103 170 103 170.5 Q 103 171 103 171.5 Q 103 172 103 172.5 Q 103 173 103.5 173 Q 104 173 104 173.5 Q 104 174 104.5 174 Q 105 174 105.5 174 Q 106 174 107 174.5 Q 108 175 108.5 175 Q 109 175 109.5 175 Q 110 175 110 175.5 Q 110 176 110.5 176 Q 111 176 111.5 176 Q 112 176 112.5 176 Q 113 176 113.5 176 Q 114 176 114.5 176 Q 115 176 115.5 176 Q 116 176 116.5 176 Q 117 176 117.5 176 Q 118 176 118.5 176 Q 119 176 119.5 176 Q 120 176 120.5 176 Q 121 176 121 175.5 Q 121 175 121.5 175 Q 122 175 122.5 175 Q 123 175 123.5 175 Q 124 175 124.5 175 Q 125 175 125 174.5 Q 125 174 125 173.5 Q 125 173 125 172.5 Q 125 172 125 171.5 Q 125 171 125.5 170 Q 126 169 126 168 Q 126 167 126 166.5 Q 126 166 126 165.5 Q 126 165 126 164.5 Q 126 164 126 163.5 Q 126 163 126.5 162.5 Q 127 162 127 161.5 Q 127 161 127 160.5 Q 127 160 127 159.5 Q 127 159 127 158.5 Q 127 158 127 157 Q 127 156 127 155.5 Q 127 155 127 154.5 Q 127 154 127 153.5 Q 127 153 127 152.5 Q 127 152 127.5 152 Q 128 152 128 151.5 Q 128 151 127.5 151 Q 127 151 126.5 151 Q 126 151 125.5 151 Q 125 151 124 151 Q 123 151 122.5 151 Q 122 151 121.5 151 Q 121 151 120 151 Q 119 151 119 150.5 Q 119 150 118 150 Q 117 150 116.5 150 Q 116 150 115.5 150 Q 115 150 114.5 150 Q 114 150 113 150 Q 112 150 111.5 150 Q 111 150 111 149.5 Q 111 149 110.5 149 Q 110 149 109.5 149 Q 109 149 108.5 149 Q 108 149 107.5 149 L 106.99 149" stroke-linecap="round" />
</g>
<g transform="matrix(1 0 0 1 96 92)"  >
<path style="stroke: rgb(0,0,0); stroke-width: 10; stroke-dasharray: none; stroke-linecap: round; stroke-dashoffset: 0; stroke-linejoin: round; stroke-miterlimit: 10; fill: none; fill-rule: nonzero; opacity: 1;"  transform=" translate(-96, -92)" d="M 83 96.01 Q 83 96 83.5 95.5 Q 84 95 84 94.5 Q 84 94 84.5 94 Q 85 94 85 93.5 Q 85 93 85.5 93 Q 86 93 86 92.5 Q 86 92 86.5 92 Q 87 92 87 91.5 Q 87 91 87.5 91 Q 88 91 88.5 91 Q 89 91 89 90.5 Q 89 90 89.5 90 Q 90 90 90.5 90 Q 91 90 91 89.5 Q 91 89 91.5 89 Q 92 89 92.5 89 Q 93 89 93.5 89 Q 94 89 94.5 89 Q 95 89 95.5 88.5 Q 96 88 96.5 88 Q 97 88 97.5 88 Q 98 88 98.5 88 Q 99 88 99.5 88 Q 100 88 100.5 88 Q 101 88 101.5 88.5 Q 102 89 102.5 89 Q 103 89 103.5 89.5 Q 104 90 104.5 90.5 Q 105 91 105.5 91 Q 106 91 106.5 91.5 Q 107 92 107.5 92.5 Q 108 93 108 93.5 Q 108 94 108.5 94 Q 109 94 109 94.5 L 109 95.01" stroke-linecap="round" />
</g>
<g transform="matrix(1 0 0 1 70.5 97.5)"  >
<path style="stroke: rgb(0,0,0); stroke-width: 10; stroke-dasharray: none; stroke-linecap: round; stroke-dashoffset: 0; stroke-linejoin: round; stroke-miterlimit: 10; fill: none; fill-rule: nonzero; opacity: 1;"  transform=" translate(-70.5, -97.5)" d="M 99.01 124.99 Q 99 125 99 125.5 Q 99 126 98.5 126.5 Q 98 127 97.5 127 Q 97 127 97 127.5 Q 97 128 96 128.5 Q 95 129 94.5 129.5 Q 94 130 93.5 130 Q 93 130 92.5 130.5 Q 92 131 91 131 Q 90 131 89.5 131.5 Q 89 132 88.5 132 Q 88 132 87.5 132.5 Q 87 133 86.5 133 Q 86 133 85.5 133 Q 85 133 84 133.5 Q 83 134 82.5 134 Q 82 134 81 134 Q 80 134 79.5 134 Q 79 134 78.5 134 Q 78 134 77.5 134 Q 77 134 76.5 134.5 Q 76 135 75.5 135 Q 75 135 74 135 Q 73 135 72.5 135 Q 72 135 71 135 Q 70 135 69.5 134.5 Q 69 134 68.5 134 Q 68 134 67.5 134 Q 67 134 66 134 Q 65 134 64.5 133.5 Q 64 133 63.5 133 Q 63 133 62.5 133 Q 62 133 61.5 132.5 Q 61 132 60.5 132 Q 60 132 59.5 132 Q 59 132 58.5 132 Q 58 132 58 131.5 Q 58 131 57.5 131 Q 57 131 56.5 130.5 Q 56 130 55.5 129.5 Q 55 129 54.5 128.5 Q 54 128 53.5 127.5 Q 53 127 52.5 126.5 Q 52 126 52 125.5 Q 52 125 51.5 124.5 Q 51 124 50.5 123 Q 50 122 49.5 122 Q 49 122 49 121.5 Q 49 121 49 120.5 Q 49 120 48.5 120 Q 48 120 48 119.5 Q 48 119 47.5 118.5 Q 47 118 47 117.5 Q 47 117 46.5 116.5 Q 46 116 46 115.5 Q 46 115 45.5 114.5 Q 45 114 45 113.5 Q 45 113 45 112.5 Q 45 112 44.5 112 Q 44 112 44 111 Q 44 110 44 109.5 Q 44 109 44 108.5 Q 44 108 44 107.5 Q 44 107 43.5 106.5 Q 43 106 43 105.5 Q 43 105 43 104.5 Q 43 104 43 103.5 Q 43 103 43 102.5 Q 43 102 43 101 Q 43 100 42.5 99.5 Q 42 99 42 98.5 Q 42 98 42 97.5 Q 42 97 42 96.5 Q 42 96 42 95.5 Q 42 95 42 94.5 Q 42 94 42 93.5 Q 42 93 42 92.5 Q 42 92 42 91.5 Q 42 91 42 90 Q 42 89 42 88 Q 42 87 42 86.5 Q 42 86 42 85.5 Q 42 85 42 84.5 Q 42 84 42 83.5 Q 42 83 42 82.5 Q 42 82 42 81.5 Q 42 81 42.5 80 Q 43 79 43 78.5 Q 43 78 43 77.5 Q 43 77 43.5 76.5 Q 44 76 44.5 75 Q 45 74 45 73.5 Q 45 73 45.5 72.5 Q 46 72 46.5 71.5 Q 47 71 47.5 71 Q 48 71 48.5 70.5 Q 49 70 50 69.5 Q 51 69 52 68.5 Q 53 68 53.5 68 Q 54 68 55 68 Q 56 68 56.5 67.5 Q 57 67 57.5 67 Q 58 67 58.5 67 Q 59 67 60 67 Q 61 67 62 67 Q 63 67 63.5 66.5 Q 64 66 65 66 Q 66 66 66.5 66 Q 67 66 67.5 66 Q 68 66 69 66 Q 70 66 70.5 66 Q 71 66 72 66 Q 73 66 74 66 Q 75 66 75.5 66 Q 76 66 76.5 66 Q 77 66 77.5 66 Q 78 66 78.5 66 Q 79 66 79.5 66 Q 80 66 81 65.5 Q 82 65 82.5 65 Q 83 65 84 65 Q 85 65 85.5 65 Q 86 65 86.5 65 Q 87 65 87.5 64.5 Q 88 64 89 64 Q 90 64 91 63.5 Q 92 63 92.5 63 Q 93 63 93.5 62.5 Q 94 62 94.5 62 Q 95 62 95.5 61.5 Q 96 61 97 60.5 Q 98 60 98.5 59.5 Q 99 59 99.5 59 Q 100 59 101 58 Q 102 57 102.5 57 Q 103 57 103 56.5 Q 103 56 103.5 56 Q 104 56 104.5 55.5 Q 105 55 105.5 55 Q 106 55 106 54.5 Q 106 54 106.5 54 Q 107 54 107.5 53.5 Q 108 53 108.5 52.5 Q 109 52 109.5 51.5 Q 110 51 110.5 50.5 Q 111 50 111.5 49.5 Q 112 49 112.5 48.5 Q 113 48 113 47.5 Q 113 47 113.5 46.5 Q 114 46 114 45.5 Q 114 45 114.5 45 Q 115 45 115 44.5 Q 115 44 115.5 44 Q 116 44 116 43.5 Q 116 43 116 42.5 Q 116 42 116.5 41.5 Q 117 41 117 40.5 Q 117 40 117 39.5 Q 117 39 117.5 38.5 Q 118 38 118 37 Q 118 36 118 35 Q 118 34 118 33.5 Q 118 33 118 32.5 Q 118 32 118 31 Q 118 30 117.5 29.5 Q 117 29 117 28.5 Q 117 28 116.5 28 Q 116 28 116 27.5 Q 116 27 115.5 26.5 Q 115 26 114.5 25.5 Q 114 25 114 24.5 Q 114 24 113.5 23.5 Q 113 23 113 22.5 Q 113 22 112.5 22 Q 112 22 112 21.5 Q 112 21 111.5 21 Q 111 21 110.5 20.5 Q 110 20 110 19.5 Q 110 19 109.5 19 Q 109 19 108.5 19 Q 108 19 107.5 19 Q 107 19 106.5 19 Q 106 19 105.5 19 Q 105 19 104.5 19.5 Q 104 20 103.5 20 Q 103 20 102.5 20 Q 102 20 101.5 20.5 Q 101 21 100 21.5 Q 99 22 98.5 22 Q 98 22 98 22.5 Q 98 23 97.5 23 Q 97 23 97 23.5 Q 97 24 96.5 24 Q 96 24 96 24.5 Q 96 25 95.5 25.5 Q 95 26 95 26.5 Q 95 27 94.5 27.5 Q 94 28 94 28.5 Q 94 29 93.5 29.5 Q 93 30 93 30.5 Q 93 31 93 31.5 Q 93 32 92.5 32 Q 92 32 92 32.5 Q 92 33 92 33.5 Q 92 34 91.5 35 Q 91 36 91 37.5 Q 91 39 90.5 39.5 Q 90 40 90 40.5 Q 90 41 90 42 Q 90 43 90 43.5 Q 90 44 90 44.5 Q 90 45 89.5 45.5 Q 89 46 89 47 Q 89 48 89 48.5 Q 89 49 88.5 49.5 Q 88 50 88 50.5 Q 88 51 88 52 Q 88 53 88 53.5 Q 88 54 88 54.5 Q 88 55 87.5 56 Q 87 57 87 57.5 Q 87 58 87 58.5 Q 87 59 86.5 60 Q 86 61 86 61.5 Q 86 62 86 63 Q 86 64 85.5 64.5 Q 85 65 85 65.5 Q 85 66 85 67 Q 85 68 85 68.5 Q 85 69 84.5 70 Q 84 71 84 71.5 Q 84 72 83.5 72.5 Q 83 73 83 73.5 Q 83 74 83 74.5 Q 83 75 83 76 Q 83 77 82.5 77.5 Q 82 78 82 79 Q 82 80 82 80.5 Q 82 81 81.5 81 Q 81 81 81 81.5 Q 81 82 81 82.5 Q 81 83 81 84 Q 81 85 80.5 85.5 Q 80 86 80 86.5 Q 80 87 80 87.5 Q 80 88 79.5 88.5 Q 79 89 79 90 Q 79 91 78.5 92 Q 78 93 78 93.5 Q 78 94 77.5 94.5 Q 77 95 76.5 96.5 Q 76 98 76 98.5 Q 76 99 76 99.5 Q 76 100 75.5 101 Q 75 102 75 102.5 Q 75 103 75 103.5 Q 75 104 74.5 104.5 Q 74 105 74 105.5 Q 74 106 74 107 Q 74 108 73.5 108.5 Q 73 109 72.5 110 Q 72 111 72 111.5 Q 72 112 72 112.5 Q 72 113 72 113.5 Q 72 114 71.5 114 Q 71 114 71 114.5 Q 71 115 70.5 116.5 Q 70 118 70 119 Q 70 120 69.5 120.5 Q 69 121 69 121.5 Q 69 122 69 122.5 Q 69 123 69 123.5 Q 69 124 68.5 125 Q 68 126 67.5 127 Q 67 128 66.5 129 Q 66 130 65.5 131.5 Q 65 133 64.5 134 Q 64 135 64 135.5 Q 64 136 63.5 138 Q 63 140 62.5 141 Q 62 142 62 142.5 Q 62 143 61.5 144 Q 61 145 61 145.5 Q 61 146 60.5 146.5 Q 60 147 60 147.5 Q 60 148 60 148.5 Q 60 149 59.5 149.5 Q 59 150 59 151 Q 59 152 58.5 152.5 Q 58 153 58 153.5 Q 58 154 57.5 154.5 Q 57 155 57 155.5 Q 57 156 57 156.5 Q 57 157 56.5 158 Q 56 159 56 159.5 Q 56 160 55.5 160.5 Q 55 161 55 161.5 Q 55 162 55 162.5 Q 55 163 54.5 163.5 Q 54 164 54 165 Q 54 166 53.5 166 Q 53 166 53 166.5 Q 53 167 52.5 168 Q 52 169 52 169.5 Q 52 170 51.5 170 Q 51 170 51 170.5 Q 51 171 50.5 171 Q 50 171 50 171.5 Q 50 172 49.5 172 Q 49 172 49 172.5 Q 49 173 48.5 173 Q 48 173 47.5 173 Q 47 173 46.5 173.5 Q 46 174 45.5 174 Q 45 174 44.5 174.5 Q 44 175 43.5 175 Q 43 175 42.5 175 Q 42 175 42 175.5 Q 42 176 41.5 176 Q 41 176 40.5 176 Q 40 176 39.5 176 Q 39 176 38 176 Q 37 176 36.5 176 Q 36 176 35.5 176 Q 35 176 34.5 176 Q 34 176 33.5 176 Q 33 176 32.5 175.5 Q 32 175 31.5 175 Q 31 175 30.5 174.5 Q 30 174 29.5 174 Q 29 174 29 173.5 Q 29 173 28.5 172.5 Q 28 172 27.5 171 Q 27 170 26.5 169.5 Q 26 169 26 168.5 Q 26 168 25.5 168 Q 25 168 25 167.5 Q 25 167 24.5 166.5 Q 24 166 24 165.5 Q 24 165 23.5 164.5 Q 23 164 23 163.5 Q 23 163 23 162.5 Q 23 162 23 161.5 Q 23 161 23 160.5 Q 23 160 23 159.5 Q 23 159 23 158.5 Q 23 158 23 157 Q 23 156 23 154.5 Q 23 153 23.5 152.5 Q 24 152 24 151.5 Q 24 151 24.5 150 Q 25 149 25 148.5 Q 25 148 26 146 Q 27 144 27.5 144 Q 28 144 28 143.5 Q 28 143 28.5 142.5 Q 29 142 29.5 141.5 Q 30 141 30 140.5 Q 30 140 30.5 139.5 Q 31 139 31.5 138.5 Q 32 138 32.5 138 Q 33 138 33.5 138 Q 34 138 34 137.5 Q 34 137 34.5 137.5 Q 35 138 35.5 138 Q 36 138 36.5 138.5 Q 37 139 37.5 139.5 Q 38 140 38 140.5 Q 38 141 38.5 141 Q 39 141 39 141.5 Q 39 142 39 142.5 Q 39 143 39 143.5 Q 39 144 39.5 144 Q 40 144 40 144.5 Q 40 145 40 145.5 Q 40 146 40 146.5 Q 40 147 40 147.5 Q 40 148 40 148.5 Q 40 149 39.5 149.5 Q 39 150 39 150.5 Q 39 151 38.5 151 Q 38 151 37.5 151 Q 37 151 37 151.5 Q 37 152 36.5 152 Q 36 152 35.5 152 Q 35 152 34.5 152 Q 34 152 33.5 152 Q 33 152 33 151.5 Q 33 151 33 150.5 Q 33 150 33 149.5 Q 33 149 33 148.5 Q 33 148 33 147.5 L 33 146.99" stroke-linecap="round" />
</g>
<g transform="matrix(1 0 0 1 148.5 65)"  >
<path style="stroke: rgb(0,0,0); stroke-width: 10; stroke-dasharray: none; stroke-linecap: round; stroke-dashoffset: 0; stroke-linejoin: round; stroke-miterlimit: 10; fill: none; fill-rule: nonzero; opacity: 1;"  transform=" translate(-148.5, -65)" d="M 135.99 61 Q 136 61 136 60.5 Q 136 60 136.5 60 Q 137 60 137 59.5 Q 137 59 137 58.5 Q 137 58 137 57.5 Q 137 57 137.5 57 Q 138 57 138 56.5 Q 138 56 138 55.5 Q 138 55 138.5 55 Q 139 55 139 54.5 Q 139 54 139 53.5 Q 139 53 139 52.5 Q 139 52 139.5 52 Q 140 52 140 51.5 Q 140 51 140 50.5 Q 140 50 140.5 50 Q 141 50 141 49.5 Q 141 49 141 48.5 Q 141 48 141.5 48 Q 142 48 142 47.5 Q 142 47 142.5 46.5 Q 143 46 143.5 46 Q 144 46 144 45.5 Q 144 45 144.5 45 Q 145 45 145.5 45 Q 146 45 146 44.5 Q 146 44 146.5 44 Q 147 44 147.5 44 Q 148 44 148.5 44 Q 149 44 149.5 44 Q 150 44 150.5 44 Q 151 44 151.5 44 Q 152 44 152.5 44 Q 153 44 153.5 44 Q 154 44 154 44.5 Q 154 45 154.5 45 Q 155 45 155.5 45 Q 156 45 156 45.5 Q 156 46 156.5 46 Q 157 46 157.5 46.5 Q 158 47 158.5 47.5 Q 159 48 159.5 48.5 Q 160 49 160 49.5 Q 160 50 160.5 50.5 Q 161 51 161 51.5 Q 161 52 161 52.5 Q 161 53 161 53.5 Q 161 54 161 54.5 Q 161 55 161 55.5 Q 161 56 161 57 Q 161 58 161 58.5 Q 161 59 160.5 59.5 Q 160 60 160 60.5 Q 160 61 160 61.5 Q 160 62 159.5 62.5 Q 159 63 159 63.5 Q 159 64 158.5 64.5 Q 158 65 158 65.5 Q 158 66 158 66.5 Q 158 67 157.5 67 Q 157 67 157 67.5 Q 157 68 156.5 68.5 Q 156 69 156 69.5 Q 156 70 155.5 70.5 Q 155 71 154.5 71 Q 154 71 154 71.5 Q 154 72 153.5 72.5 Q 153 73 153 73.5 Q 153 74 152.5 74.5 Q 152 75 151.5 76 Q 151 77 150.5 77 Q 150 77 150 77.5 Q 150 78 150 78.5 Q 150 79 149.5 79 Q 149 79 149 79.5 Q 149 80 149 80.5 Q 149 81 148.5 81 Q 148 81 148 81.5 Q 148 82 148 82.5 Q 148 83 147.5 83.5 Q 147 84 146.5 85 Q 146 86 145.5 86 L 144.99 86" stroke-linecap="round" />
</g>
<g transform="matrix(1 0 0 1 127 73.5)"  >
<path style="stroke: rgb(0,0,0); stroke-width: 10; stroke-dasharray: none; stroke-linecap: round; stroke-dashoffset: 0; stroke-linejoin: round; stroke-miterlimit: 10; fill: none; fill-rule: nonzero; opacity: 1;"  transform=" translate(-127, -73.5)" d="M 133 63.01 Q 133 63 133 62.5 Q 133 62 133 61.5 Q 133 61 132.5 61 Q 132 61 131.5 60.5 Q 131 60 130.5 59.5 Q 130 59 129.5 59 Q 129 59 128.5 58.5 Q 128 58 127.5 58 Q 127 58 127 57.5 Q 127 57 126.5 57 Q 126 57 125.5 57 Q 125 57 124.5 56.5 Q 124 56 123.5 56 Q 123 56 122.5 56 Q 122 56 121.5 56 Q 121 56 121 56.5 Q 121 57 120.5 57 Q 120 57 119.5 57 Q 119 57 118.5 57 Q 118 57 118 57.5 Q 118 58 117.5 58 Q 117 58 116.5 58.5 Q 116 59 115.5 59 Q 115 59 115 59.5 Q 115 60 114.5 60 Q 114 60 114 60.5 Q 114 61 113.5 61.5 Q 113 62 113 62.5 Q 113 63 112.5 63 Q 112 63 112 63.5 Q 112 64 112 64.5 Q 112 65 112 65.5 Q 112 66 111.5 66 Q 111 66 111 66.5 Q 111 67 111 67.5 Q 111 68 111 68.5 Q 111 69 111 69.5 Q 111 70 111.5 70.5 Q 112 71 112.5 71.5 Q 113 72 113 73 Q 113 74 113.5 74 Q 114 74 114 74.5 Q 114 75 114.5 75 Q 115 75 115 75.5 Q 115 76 115.5 76.5 Q 116 77 116 77.5 Q 116 78 116.5 78 Q 117 78 117.5 78.5 Q 118 79 118.5 79.5 Q 119 80 119.5 80.5 Q 120 81 120.5 81 Q 121 81 121 81.5 Q 121 82 121.5 82 Q 122 82 122 82.5 Q 122 83 122.5 83 Q 123 83 123.5 83.5 Q 124 84 124.5 84 Q 125 84 125.5 84.5 Q 126 85 126.5 85 Q 127 85 127 85.5 Q 127 86 127.5 86 Q 128 86 128.5 86 Q 129 86 129.5 86 Q 130 86 130 86.5 Q 130 87 130.5 87 Q 131 87 131.5 87 Q 132 87 132.5 87.5 Q 133 88 133.5 88 Q 134 88 134.5 88 Q 135 88 135.5 88 Q 136 88 136.5 88.5 Q 137 89 137.5 89 Q 138 89 138.5 89 Q 139 89 139.5 89 Q 140 89 140 89.5 Q 140 90 140.5 90 Q 141 90 141.5 90 Q 142 90 142.5 90.5 L 143.01 91.01" stroke-linecap="round" />
</g>
</svg>